<?xml version="1.0" encoding="UTF-8"?>
<svg version="1.1" xmlns="http://www.w3.org/2000/svg" width="598" height="170">
<path d="M0 0 C197.34 0 394.68 0 598 0 C598 56.1 598 112.2 598 170 C400.66 170 203.32 170 0 170 C0 113.9 0 57.8 0 0 Z " fill="#5A3B34" transform="translate(0,0)"/>
<path d="M0 0 C2.67957988 0.02909663 5.35719318 0.02055625 8.03686523 0.00756836 C9.75367165 0.01380314 11.47047189 0.02219204 13.18725586 0.03295898 C14.37807014 0.02855553 14.37807014 0.02855553 15.59294128 0.02406311 C21.98399635 0.13196209 26.43644 2.12173756 31.55053711 5.96655273 C33.6549746 7.528513 35.61597097 8.8139204 37.92553711 10.09155273 C38.60616211 10.54530273 39.28678711 10.99905273 39.98803711 11.46655273 C39.98803711 12.45655273 39.98803711 13.44655273 39.98803711 14.46655273 C38.33803711 14.13655273 36.68803711 13.80655273 34.98803711 13.46655273 C34.98803711 12.80655273 34.98803711 12.14655273 34.98803711 11.46655273 C34.20428711 11.34280273 33.42053711 11.21905273 32.61303711 11.09155273 C29.98803711 10.46655273 29.98803711 10.46655273 27.98803711 8.46655273 C25.83941366 7.87568129 23.6682922 7.36470397 21.48803711 6.90405273 C15.16178228 5.55342532 15.16178228 5.55342532 12.98803711 4.46655273 C-1.07890898 3.37850166 -13.05772222 5.63418881 -26.00024414 11.13452148 C-36.27669099 15.44784147 -44.89956912 16.16107735 -56.01196289 15.46655273 C-55.35196289 16.12655273 -54.69196289 16.78655273 -54.01196289 17.46655273 C-52.96820966 21.46106696 -52.55208417 25.17889232 -53.94946289 29.09155273 C-62.19104553 38.58186001 -70.90500719 42.0844921 -83.44946289 43.21655273 C-104.358873 44.28103179 -104.358873 44.28103179 -111.01196289 42.46655273 C-112.19946289 40.52905273 -112.19946289 40.52905273 -113.01196289 38.46655273 C-115.0455577 37.19850707 -115.0455577 37.19850707 -117.01196289 36.46655273 C-117.01196289 35.80655273 -117.01196289 35.14655273 -117.01196289 34.46655273 C-117.67196289 34.46655273 -118.33196289 34.46655273 -119.01196289 34.46655273 C-120.89588074 31.20109512 -121.50484256 28.18543512 -122.01196289 24.46655273 C-123.52790039 25.20905273 -123.52790039 25.20905273 -125.07446289 25.96655273 C-128.86481709 27.56692451 -131.87177118 28.00324425 -136.01196289 27.46655273 C-136.77250977 26.80913086 -137.53305664 26.15170898 -138.31665039 25.47436523 C-141.60378236 23.02569012 -143.46080175 22.97504271 -147.51196289 22.90405273 C-152.36178399 22.80773619 -154.98651755 22.1729642 -159.01196289 19.46655273 C-160.9964806 18.75512186 -162.99398402 18.07663937 -165.01196289 17.46655273 C-165.34196289 18.12655273 -165.67196289 18.78655273 -166.01196289 19.46655273 C-169.01196289 21.46655273 -169.01196289 21.46655273 -171.69946289 21.90405273 C-174.94284967 22.45481653 -177.78996606 23.38291818 -180.83227539 24.62280273 C-183.01196289 25.46655273 -183.01196289 25.46655273 -185.25415039 26.06030273 C-191.75479205 28.02115202 -195.86060835 31.76529567 -200.57446289 36.46655273 C-201.19466309 37.0844165 -201.81486328 37.70228027 -202.45385742 38.33886719 C-205.37347667 41.3680842 -207.16348025 43.27737131 -208.01196289 47.46655273 C-208.66223801 48.63391409 -209.35069064 49.78077895 -210.07446289 50.90405273 C-211.9206242 54.01615323 -212.10056969 55.83367396 -212.01196289 59.46655273 C-213.4201343 64.38509429 -215.29511189 70.64382513 -219.68554688 73.58935547 C-222.81601027 74.76972644 -225.45438083 74.67331243 -228.79711914 74.62670898 C-229.45344833 74.62150742 -230.10977753 74.61630585 -230.78599548 74.61094666 C-232.88238038 74.59319739 -234.97826805 74.56211879 -237.07446289 74.52905273 C-239.81531177 74.49210541 -242.5561135 74.46175056 -245.29711914 74.43920898 C-245.96729065 74.43361969 -246.63746216 74.4280304 -247.32794189 74.42227173 C-252.04518441 74.40797617 -256.64388526 74.7407917 -261.32910156 75.24169922 C-266.4237097 75.66868385 -271.52897526 75.52938161 -276.63696289 75.46655273 C-278.77493481 75.44119126 -280.91296334 75.42010827 -283.05102539 75.40405273 C-283.98124512 75.39245117 -284.91146484 75.38084961 -285.86987305 75.36889648 C-287.99471068 75.22457716 -287.99471068 75.22457716 -289.01196289 76.46655273 C-293.58748698 76.80538513 -298.17551367 76.79170003 -302.76196289 76.84155273 C-304.69555664 76.89762695 -304.69555664 76.89762695 -306.66821289 76.95483398 C-307.91086914 76.96643555 -309.15352539 76.97803711 -310.43383789 76.98999023 C-312.14458496 77.01971924 -312.14458496 77.01971924 -313.88989258 77.05004883 C-317.92270664 76.29634023 -319.40832738 74.54186135 -322.01196289 71.46655273 C-322.42446289 72.10592773 -322.83696289 72.74530273 -323.26196289 73.40405273 C-325.23249141 75.72646135 -326.02662851 76.1951587 -329.01196289 76.46655273 C-330.03290039 76.18811523 -330.03290039 76.18811523 -331.07446289 75.90405273 C-331.71383789 75.75967773 -332.35321289 75.61530273 -333.01196289 75.46655273 C-334.49696289 76.45655273 -334.49696289 76.45655273 -336.01196289 77.46655273 C-338.57446289 77.27905273 -338.57446289 77.27905273 -341.01196289 76.46655273 C-341.67196289 75.47655273 -342.33196289 74.48655273 -343.01196289 73.46655273 C-343.46571289 73.96155273 -343.91946289 74.45655273 -344.38696289 74.96655273 C-346.01196289 76.46655273 -346.01196289 76.46655273 -348.01196289 76.46655273 C-347.68196289 75.47655273 -347.35196289 74.48655273 -347.01196289 73.46655273 C-346.6448523 68.41878216 -346.98015508 66.38263782 -350.01196289 62.46655273 C-350.38696289 59.40405273 -350.38696289 59.40405273 -350.01196289 56.46655273 C-348.57446289 54.77905273 -348.57446289 54.77905273 -347.01196289 53.46655273 C-346.68196289 52.47655273 -346.35196289 51.48655273 -346.01196289 50.46655273 C-343.04481906 50.79623538 -341.6924185 51.70621103 -339.26196289 53.52905273 C-336.19916185 57.52770964 -336.51871862 59.53411 -337.01196289 64.46655273 C-337.50696289 64.96155273 -337.50696289 64.96155273 -338.01196289 65.46655273 C-338.3795702 67.79473237 -338.7143787 70.12839123 -339.01196289 72.46655273 C-338.16891602 72.22098633 -338.16891602 72.22098633 -337.30883789 71.97045898 C-334.88137233 71.43790276 -332.74306608 71.36756592 -330.26196289 71.40405273 C-329.46274414 71.41307617 -328.66352539 71.42209961 -327.84008789 71.43139648 C-327.23680664 71.44299805 -326.63352539 71.45459961 -326.01196289 71.46655273 C-326.01196289 69.48655273 -326.01196289 67.50655273 -326.01196289 65.46655273 C-327.49696289 64.97155273 -327.49696289 64.97155273 -329.01196289 64.46655273 C-331.3377539 60.97786622 -331.43061746 59.56936755 -331.01196289 55.46655273 C-329.63696289 53.40405273 -329.63696289 53.40405273 -328.01196289 51.46655273 C-327.30033846 49.81858038 -326.62164336 48.15489865 -326.01196289 46.46655273 C-323.70196289 46.46655273 -321.39196289 46.46655273 -319.01196289 46.46655273 C-318.88821289 47.39467773 -318.88821289 47.39467773 -318.76196289 48.34155273 C-318.2058838 50.64036735 -318.2058838 50.64036735 -316.01196289 51.65405273 C-315.35196289 51.92217773 -314.69196289 52.19030273 -314.01196289 52.46655273 C-312.44255091 54.03596472 -312.7669782 55.60790267 -312.69946289 57.77905273 C-312.72699254 62.13561942 -312.72699254 62.13561942 -314.94946289 64.71655273 C-315.63008789 65.29405273 -316.31071289 65.87155273 -317.01196289 66.46655273 C-317.66672491 69.02585776 -317.66672491 69.02585776 -318.01196289 71.46655273 C-280.28776953 70.95181002 -280.28776953 70.95181002 -242.57446289 69.96655273 C-241.5101001 69.93118408 -240.4457373 69.89581543 -239.34912109 69.859375 C-232.87872603 69.61534013 -226.45413259 69.11462352 -220.01196289 68.46655273 C-219.92567627 67.35920776 -219.92567627 67.35920776 -219.83764648 66.22949219 C-219.26196289 58.84155273 -219.26196289 58.84155273 -217.01196289 55.46655273 C-216.64641416 54.02060443 -216.33751105 52.55961201 -216.07446289 51.09155273 C-214.97648018 45.81608892 -213.60461627 42.52832165 -209.01196289 39.46655273 C-208.3424587 37.80102388 -207.67606533 36.13424281 -207.01196289 34.46655273 C-203.05232424 29.67753031 -197.30011586 22.93435124 -190.86352539 22.23217773 C-188.91148866 22.21847923 -186.95942188 22.33224522 -185.01196289 22.46655273 C-184.68196289 21.47655273 -184.35196289 20.48655273 -184.01196289 19.46655273 C-172.00397353 14.18998598 -154.00324802 14.82851819 -141.81274414 19.26733398 C-141.15661133 19.53932617 -140.50047852 19.81131836 -139.82446289 20.09155273 C-135.725443 21.77584602 -131.38602399 22.39218392 -127.01196289 21.46655273 C-126.02196289 19.98155273 -126.02196289 19.98155273 -125.01196289 18.46655273 C-123.06665039 18.17358398 -123.06665039 18.17358398 -120.88696289 18.27905273 C-119.60821289 18.34092773 -118.32946289 18.40280273 -117.01196289 18.46655273 C-117.00938477 19.34698242 -117.00680664 20.22741211 -117.00415039 21.13452148 C-116.94852888 27.50246191 -116.94852888 27.50246191 -114.92602539 33.40795898 C-110.90975166 37.12467638 -106.18707774 37.34931712 -101.01196289 37.46655273 C-100.21532227 37.50522461 -99.41868164 37.54389648 -98.59790039 37.58374023 C-92.19566563 37.76666123 -86.25330615 36.82040482 -80.01196289 35.46655273 C-78.99489258 35.2719043 -77.97782227 35.07725586 -76.92993164 34.87670898 C-69.56973811 33.31208923 -64.35310368 30.80769353 -59.01196289 25.46655273 C-58.93882723 22.93605871 -58.91948762 20.43350437 -58.94946289 17.90405273 C-58.95623047 16.83767578 -58.95623047 16.83767578 -58.96313477 15.74975586 C-58.97495425 13.9886526 -58.99289026 12.22759238 -59.01196289 10.46655273 C-54.91448708 8.14287598 -52.6703846 8.71519439 -48.01196289 9.46655273 C-46.26360908 9.56486442 -44.51285353 9.62597723 -42.76196289 9.65405273 C-41.93180664 9.66823242 -41.10165039 9.68241211 -40.24633789 9.69702148 C-37.7257051 9.61256031 -37.7257051 9.61256031 -35.01196289 7.46655273 C-32.94621448 6.7116005 -30.8581091 6.08278034 -28.75415039 5.44311523 C-26.13026752 4.61154622 -26.13026752 4.61154622 -24.39257812 3.48876953 C-16.78461533 -0.77841679 -8.46688799 -0.10060132 0 0 Z " fill="#967F6E" transform="translate(451.011962890625,20.533447265625)"/>
<path d="M0 0 C3.0625 0.125 3.0625 0.125 5.0625 1.125 C5.206875 1.764375 5.35125 2.40375 5.5 3.0625 C5.92415035 5.50710855 5.92415035 5.50710855 9.0625 7.125 C9.0625 7.785 9.0625 8.445 9.0625 9.125 C13.3525 9.125 17.6425 9.125 22.0625 9.125 C21.7325 9.785 21.4025 10.445 21.0625 11.125 C15.3414958 12.64281744 11.1447615 11.94084759 6.0625 9.125 C3.0625 6.03125 3.0625 6.03125 3.0625 3.125 C2.0725 3.125 1.0825 3.125 0.0625 3.125 C-0.1953125 3.71023437 -0.453125 4.29546875 -0.71875 4.8984375 C-2.03338946 7.30018266 -3.46940795 8.85696231 -5.4375 10.75 C-6.0459375 11.34039062 -6.654375 11.93078125 -7.28125 12.5390625 C-7.8278125 13.06242187 -8.374375 13.58578125 -8.9375 14.125 C-9.5975 14.785 -10.2575 15.445 -10.9375 16.125 C-10.380625 16.681875 -9.82375 17.23875 -9.25 17.8125 C-8.486875 18.575625 -7.72375 19.33875 -6.9375 20.125 C-6.050625 20.970625 -5.16375 21.81625 -4.25 22.6875 C-1.9375 25.125 -1.9375 25.125 -0.9375 28.125 C0.3825 27.795 1.7025 27.465 3.0625 27.125 C3.10375 26.526875 3.145 25.92875 3.1875 25.3125 C4.0625 23.125 4.0625 23.125 6.625 21.375 C10.89614262 19.82185723 13.5402684 19.68019033 18.0625 20.125 C20.0625 21.5 20.0625 21.5 21.0625 23.125 C21.0625 23.785 21.0625 24.445 21.0625 25.125 C21.7225 25.125 22.3825 25.125 23.0625 25.125 C23.0625 24.135 23.0625 23.145 23.0625 22.125 C25.94461302 21.16429566 27.76100044 21.01918117 30.75 21.0625 C31.96236328 21.07603516 31.96236328 21.07603516 33.19921875 21.08984375 C33.81410156 21.10144531 34.42898437 21.11304687 35.0625 21.125 C35.7225 22.445 36.3825 23.765 37.0625 25.125 C37.7225 24.135 38.3825 23.145 39.0625 22.125 C41.93183472 21.3764779 44.11538605 20.85003143 47 21.6875 C49.20891019 22.34454947 49.20891019 22.34454947 51.8190918 21.1394043 C57.73526423 19.37642509 63.92481922 20.09174714 70.01953125 20.33203125 C71.372342 20.37817496 72.72518213 20.42346446 74.07804871 20.46794128 C76.89989939 20.56300705 79.72135012 20.66541446 82.54272461 20.77368164 C86.1617188 20.91237841 89.78102298 21.03709152 93.40068531 21.15694141 C96.18800514 21.24998162 98.9751288 21.34804385 101.76221275 21.4478817 C103.74643175 21.51870673 105.73073694 21.58710359 107.71504211 21.6554718 C109.51282356 21.72510384 109.51282356 21.72510384 111.34692383 21.79614258 C112.93407951 21.85515495 112.93407951 21.85515495 114.55329895 21.9153595 C117.0625 22.125 117.0625 22.125 119.0625 23.125 C120.92695203 23.2551419 122.79558016 23.32759639 124.6640625 23.37109375 C125.79457031 23.40396484 126.92507812 23.43683594 128.08984375 23.47070312 C130.46476169 23.53130092 132.83976479 23.58865884 135.21484375 23.64257812 C141.43732399 23.829323 147.15370748 24.07343351 153.0625 26.125 C155.46803544 29.61690629 156.44909441 32.95384201 157.0625 37.125 C160.64329313 34.99605572 164.1751576 32.80246492 167.6875 30.5625 C169.09902344 29.66337891 169.09902344 29.66337891 170.5390625 28.74609375 C172.39131624 27.55617842 174.23071479 26.34619014 176.0625 25.125 C178.39260909 24.44715008 180.72609824 23.78083207 183.0625 23.125 C183.69800781 22.77695313 184.33351563 22.42890625 184.98828125 22.0703125 C187.43181585 20.95668656 189.14280355 20.92147952 191.8125 21 C192.61171875 21.01804687 193.4109375 21.03609375 194.234375 21.0546875 C194.83765625 21.07789062 195.4409375 21.10109375 196.0625 21.125 C196.0625 21.455 196.0625 21.785 196.0625 22.125 C194.845625 22.228125 193.62875 22.33125 192.375 22.4375 C189.50673661 22.78410276 188.09027625 23.10833425 185.5625 24.625 C182.07563435 26.71711939 179.09639744 26.78314428 175.0625 27.125 C174.7325 28.115 174.4025 29.105 174.0625 30.125 C172.4125 30.455 170.7625 30.785 169.0625 31.125 C169.000625 31.723125 168.93875 32.32125 168.875 32.9375 C167.72978131 36.02078108 165.88835053 36.51940311 163.0625 38.125 C162.216875 39.011875 161.37125 39.89875 160.5 40.8125 C158.0625 43.125 158.0625 43.125 154.0625 43.125 C153.0725 38.175 152.0825 33.225 151.0625 28.125 C147.911708 27.074736 145.50659274 26.92455365 142.19458008 26.81298828 C140.98251389 26.77164764 139.77044769 26.73030701 138.52165222 26.68771362 C137.18762747 26.64805277 135.85358647 26.60893518 134.51953125 26.5703125 C133.83814402 26.54937656 133.15675678 26.52844063 132.45472145 26.50687027 C117.32499671 26.04728878 102.19843335 25.97027142 87.06274414 25.99462891 C83.39028125 26.0004841 79.71788894 25.99692377 76.04542828 25.99105644 C73.17594353 25.98746181 70.30647597 25.98858162 67.43699074 25.99118423 C65.42606687 25.99216825 63.41514231 25.98915078 61.40422058 25.98605347 C60.20308121 25.98920563 59.00194183 25.99235779 57.7644043 25.99560547 C56.70762985 25.99640106 55.65085541 25.99719666 54.5620575 25.99801636 C52.06339455 25.95736229 52.06339455 25.95736229 50.0625 27.125 C47.3901379 27.25915472 44.73999512 27.16818541 42.0625 27.125 C43.16881083 31.30420011 43.16881083 31.30420011 45.6875 34.6875 C47.0625 36.125 47.0625 36.125 47.5625 38.4375 C46.84132548 42.31381304 44.68981036 44.25328868 42.0625 47.125 C41.0513778 48.44991874 40.04586098 49.77934813 39.0625 51.125 C35.89216958 50.78532174 35.06367393 50.12630809 32.875 47.6875 C31.0625 45.125 31.0625 45.125 30.0625 43.125 C28.14783633 43.24677688 28.14783633 43.24677688 26.0625 44.125 C25.5675 44.970625 25.0725 45.81625 24.5625 46.6875 C24.0675 47.491875 23.5725 48.29625 23.0625 49.125 C21.7425 49.125 20.4225 49.125 19.0625 49.125 C14.77328815 41.92525153 14.09549705 36.7210701 16.0625 28.625 C16.3925 27.47 16.7225 26.315 17.0625 25.125 C11.58211001 26.28431327 9.24779813 27.52401381 6.0625 32.125 C2.97076248 33.67086876 0.46820448 33.41859521 -2.9375 33.125 C-5.96042361 31.00078341 -6.80616492 29.75540837 -7.5625 26.125 C-9.26224276 22.41647035 -10.3639271 22.21488421 -14.0625 20.75 C-15.68001961 20.18638835 -17.30310833 19.63763207 -18.9375 19.125 C-18.9375 16.485 -18.9375 13.845 -18.9375 11.125 C-17.844375 10.856875 -16.75125 10.58875 -15.625 10.3125 C-12.10694687 9.17956764 -11.14263582 8.83130305 -8.9375 6.125 C-2.9375 0.125 -2.9375 0.125 0 0 Z " fill="#E3C696" transform="translate(80.9375,87.875)"/>
<path d="M0 0 C2.67957988 0.02909663 5.35719318 0.02055625 8.03686523 0.00756836 C9.75367165 0.01380314 11.47047189 0.02219204 13.18725586 0.03295898 C14.37807014 0.02855553 14.37807014 0.02855553 15.59294128 0.02406311 C21.98399635 0.13196209 26.43644 2.12173756 31.55053711 5.96655273 C33.6549746 7.528513 35.61597097 8.8139204 37.92553711 10.09155273 C38.60616211 10.54530273 39.28678711 10.99905273 39.98803711 11.46655273 C39.98803711 12.45655273 39.98803711 13.44655273 39.98803711 14.46655273 C38.33803711 14.13655273 36.68803711 13.80655273 34.98803711 13.46655273 C34.98803711 12.80655273 34.98803711 12.14655273 34.98803711 11.46655273 C34.20428711 11.34280273 33.42053711 11.21905273 32.61303711 11.09155273 C29.98803711 10.46655273 29.98803711 10.46655273 27.98803711 8.46655273 C25.83941366 7.87568129 23.6682922 7.36470397 21.48803711 6.90405273 C15.16178228 5.55342532 15.16178228 5.55342532 12.98803711 4.46655273 C-1.07890898 3.37850166 -13.05772222 5.63418881 -26.00024414 11.13452148 C-36.27669099 15.44784147 -44.89956912 16.16107735 -56.01196289 15.46655273 C-55.02196289 16.45655273 -55.02196289 16.45655273 -54.01196289 17.46655273 C-52.96820966 21.46106696 -52.55208417 25.17889232 -53.94946289 29.09155273 C-62.19104553 38.58186001 -70.90500719 42.0844921 -83.44946289 43.21655273 C-104.358873 44.28103179 -104.358873 44.28103179 -111.01196289 42.46655273 C-112.19946289 40.52905273 -112.19946289 40.52905273 -113.01196289 38.46655273 C-115.0455577 37.19850707 -115.0455577 37.19850707 -117.01196289 36.46655273 C-117.01196289 35.80655273 -117.01196289 35.14655273 -117.01196289 34.46655273 C-117.67196289 34.46655273 -118.33196289 34.46655273 -119.01196289 34.46655273 C-119.01196289 29.51655273 -119.01196289 24.56655273 -119.01196289 19.46655273 C-121.32196289 19.79655273 -123.63196289 20.12655273 -126.01196289 20.46655273 C-125.68196289 19.80655273 -125.35196289 19.14655273 -125.01196289 18.46655273 C-122.37196289 18.46655273 -119.73196289 18.46655273 -117.01196289 18.46655273 C-117.00938477 19.34698242 -117.00680664 20.22741211 -117.00415039 21.13452148 C-116.94852888 27.50246191 -116.94852888 27.50246191 -114.92602539 33.40795898 C-110.90975166 37.12467638 -106.18707774 37.34931712 -101.01196289 37.46655273 C-99.81700195 37.52456055 -99.81700195 37.52456055 -98.59790039 37.58374023 C-92.19566563 37.76666123 -86.25330615 36.82040482 -80.01196289 35.46655273 C-78.99489258 35.2719043 -77.97782227 35.07725586 -76.92993164 34.87670898 C-69.56973811 33.31208923 -64.35310368 30.80769353 -59.01196289 25.46655273 C-58.93882723 22.93605871 -58.91948762 20.43350437 -58.94946289 17.90405273 C-58.95397461 17.19313477 -58.95848633 16.4822168 -58.96313477 15.74975586 C-58.97495425 13.9886526 -58.99289026 12.22759238 -59.01196289 10.46655273 C-54.91448708 8.14287598 -52.6703846 8.71519439 -48.01196289 9.46655273 C-46.26360908 9.56486442 -44.51285353 9.62597723 -42.76196289 9.65405273 C-41.93180664 9.66823242 -41.10165039 9.68241211 -40.24633789 9.69702148 C-37.7257051 9.61256031 -37.7257051 9.61256031 -35.01196289 7.46655273 C-32.94621448 6.7116005 -30.8581091 6.08278034 -28.75415039 5.44311523 C-26.13026752 4.61154622 -26.13026752 4.61154622 -24.39257812 3.48876953 C-16.78461533 -0.77841679 -8.46688799 -0.10060132 0 0 Z " fill="#937A61" transform="translate(451.011962890625,20.533447265625)"/>
<path d="M0 0 C1.14919922 -0.01224609 2.29839844 -0.02449219 3.48242188 -0.03710938 C4.58263672 -0.03904297 5.68285156 -0.04097656 6.81640625 -0.04296875 C7.8226001 -0.04707764 8.82879395 -0.05118652 9.86547852 -0.05541992 C12.4375 0.1875 12.4375 0.1875 15.4375 2.1875 C14.58631592 2.19160889 13.73513184 2.19571777 12.8581543 2.19995117 C9.64629916 2.22720539 6.43569263 2.27657539 3.22436523 2.34008789 C1.84459886 2.36303319 0.46466318 2.37760753 -0.9152832 2.38305664 C-10.40790468 2.42788195 -17.21523798 3.72440677 -25.5625 8.1875 C-27.76159477 9.0246825 -29.96842822 9.84230414 -32.1875 10.625 C-37.08789471 12.46842678 -41.05515688 14.66326954 -45.296875 17.6953125 C-50.05512317 20.82919319 -55.784794 24.1875 -61.5625 24.1875 C-61.5625 24.8475 -61.5625 25.5075 -61.5625 26.1875 C-66.15533188 28.46547083 -70.4174832 28.5810175 -75.4375 28.75 C-84.57664032 28.41523029 -84.57664032 28.41523029 -92.5625 31.1875 C-94.76139216 31.33476334 -96.96480161 31.41519833 -99.16796875 31.46875 C-99.84362381 31.48715942 -100.51927887 31.50556885 -101.21540833 31.52453613 C-103.39351433 31.58342963 -105.57170788 31.63598552 -107.75 31.6875 C-131.10528372 31.40873472 -131.10528372 31.40873472 -152.5625 39.1875 C-154.875 39.875 -154.875 39.875 -156.5625 40.1875 C-156.5625 39.5275 -156.5625 38.8675 -156.5625 38.1875 C-155.758125 37.89875 -154.95375 37.61 -154.125 37.3125 C-151.4298532 36.45487432 -151.4298532 36.45487432 -150.5625 34.1875 C-148.3828125 33.40625 -148.3828125 33.40625 -145.6875 32.6875 C-142.40728965 31.80767682 -140.43438369 31.10208912 -137.5625 29.1875 C-134.28188679 28.27551486 -130.91589482 27.76798113 -127.5625 27.1875 C-126.54285156 26.99929687 -125.52320313 26.81109375 -124.47265625 26.6171875 C-117.88240198 25.48286495 -111.61116712 25.01118299 -104.92578125 25.21484375 C-102.20633889 25.19273446 -99.66723818 25.0124316 -96.97265625 24.71484375 C-93.06152802 24.29326081 -89.19040429 24.07748979 -85.2578125 23.9765625 C-84.18015625 23.94820312 -83.1025 23.91984375 -81.9921875 23.890625 C-79.76580698 23.83799189 -77.53921027 23.79389345 -75.3125 23.7578125 C-74.24257813 23.726875 -73.17265625 23.6959375 -72.0703125 23.6640625 C-71.10754395 23.64424316 -70.14477539 23.62442383 -69.15283203 23.60400391 C-66.15133205 23.1213876 -64.8458015 22.13997703 -62.5625 20.1875 C-60.58172047 19.14994882 -58.57720098 18.15754121 -56.5625 17.1875 C-55.82902344 16.80464844 -55.09554687 16.42179687 -54.33984375 16.02734375 C-49.10084633 13.3123641 -43.85806554 11.10147923 -38.2890625 9.15625 C-35.63875892 8.21459486 -33.04081809 7.1888947 -30.4375 6.125 C-19.92104051 1.87152753 -11.36256745 0.00639424 0 0 Z " fill="#6C5038" transform="translate(406.5625,80.8125)"/>
<path d="M0 0 C2.475 0.495 2.475 0.495 5 1 C5.33 2.32 5.66 3.64 6 5 C6.66 5 7.32 5 8 5 C10.29013653 8.4352048 10.17842973 9.985331 10 14 C9.236875 14.12375 8.47375 14.2475 7.6875 14.375 C4.37097744 16.38033922 4.41834704 17.29065365 3.5 20.9375 C2.25920712 25.7612566 2.25920712 25.7612566 -0.375 28.1875 C-3.39476475 29.12218909 -4.97342981 28.71681925 -8 28 C-8.99 28.66 -9.98 29.32 -11 30 C-13.5625 29.8125 -13.5625 29.8125 -16 29 C-16.66 28.01 -17.32 27.02 -18 26 C-18.45375 26.495 -18.9075 26.99 -19.375 27.5 C-21 29 -21 29 -23 29 C-22.67 28.01 -22.34 27.02 -22 26 C-21.63288941 20.95222942 -21.96819219 18.91608509 -25 15 C-25.375 11.9375 -25.375 11.9375 -25 9 C-23.5625 7.3125 -23.5625 7.3125 -22 6 C-21.67 5.01 -21.34 4.02 -21 3 C-18.03285617 3.32968265 -16.68045561 4.23965829 -14.25 6.0625 C-11.18719896 10.06115691 -11.50675573 12.06755726 -12 17 C-12.33 17.33 -12.66 17.66 -13 18 C-13.36760731 20.32817964 -13.70241581 22.6618385 -14 25 C-13.15695313 24.75443359 -13.15695313 24.75443359 -12.296875 24.50390625 C-9.86940944 23.97135003 -7.73110319 23.90101319 -5.25 23.9375 C-4.45078125 23.94652344 -3.6515625 23.95554687 -2.828125 23.96484375 C-2.22484375 23.97644531 -1.6215625 23.98804687 -1 24 C-1 22.02 -1 20.04 -1 18 C-1.99 17.67 -2.98 17.34 -4 17 C-6.39989427 13.4001586 -6.64136132 12.24901872 -6 8 C-4.2250762 5.13638747 -2.18412368 2.56114503 0 0 Z " fill="#E6C996" transform="translate(126,68)"/>
<path d="M0 0 C0.87720703 -0.01611328 1.75441406 -0.03222656 2.65820312 -0.04882812 C8.27843894 -0.05303174 12.18691643 0.72693223 17.1875 3.3125 C17.1875 4.3025 17.1875 5.2925 17.1875 6.3125 C16.300625 6.1475 15.41375 5.9825 14.5 5.8125 C6.13602767 4.65414945 -2.32701243 3.98755163 -9.8125 8.3125 C-10.4725 8.9725 -11.1325 9.6325 -11.8125 10.3125 C-12.534375 10.51875 -13.25625 10.725 -14 10.9375 C-17.70380793 12.74825054 -19.51273728 15.37743715 -21.96875 18.6328125 C-23.8125 20.3125 -23.8125 20.3125 -26.46875 20.6171875 C-28.8125 20.3125 -28.8125 20.3125 -29.8125 19.3125 C-31.972918 18.94081518 -34.14125622 18.61458609 -36.3125 18.3125 C-42.70138889 17.42361111 -42.70138889 17.42361111 -43.8125 16.3125 C-45.40105867 16.21157263 -46.99417715 16.18167543 -48.5859375 16.1796875 C-49.62258545 16.17775391 -50.6592334 16.17582031 -51.72729492 16.17382812 C-52.8691626 16.17833984 -54.01103027 16.18285156 -55.1875 16.1875 C-56.36094971 16.18943359 -57.53439941 16.19136719 -58.7434082 16.19335938 C-74.43892685 16.26657462 -90.12644508 16.7953622 -105.8125 17.3125 C-105.8125 15.9925 -105.8125 14.6725 -105.8125 13.3125 C-102.79118381 12.3053946 -100.77200162 12.18579529 -97.61352539 12.18310547 C-96.55134293 12.17995331 -95.48916046 12.17680115 -94.39479065 12.17355347 C-93.2448613 12.1755777 -92.09493195 12.17760193 -90.91015625 12.1796875 C-89.7220787 12.17873077 -88.53400116 12.17777405 -87.30992126 12.17678833 C-84.78888903 12.17610692 -82.26785505 12.17795847 -79.74682617 12.18212891 C-75.92167104 12.18743526 -72.09663563 12.18220468 -68.27148438 12.17578125 C-65.81770808 12.17644287 -63.36393185 12.17772576 -60.91015625 12.1796875 C-59.77844498 12.17766327 -58.6467337 12.17563904 -57.48072815 12.17355347 C-37.97764861 12.22992569 -37.97764861 12.22992569 -33.8125 14.3125 C-28.0495473 14.99772739 -28.0495473 14.99772739 -23.25 12.25 C-22.445625 11.280625 -21.64125 10.31125 -20.8125 9.3125 C-19.63915152 8.0698173 -18.45085625 6.84112138 -17.25 5.625 C-16.41275391 4.75294922 -16.41275391 4.75294922 -15.55859375 3.86328125 C-10.79243786 -0.36974758 -6.06930714 -0.02200619 0 0 Z " fill="#705542" transform="translate(460.8125,111.6875)"/>
<path d="M0 0 C2.31 0 4.62 0 7 0 C7.12375 0.928125 7.12375 0.928125 7.25 1.875 C7.80607909 4.17381462 7.80607909 4.17381462 10 5.1875 C10.66 5.455625 11.32 5.72375 12 6 C13.56941198 7.56941198 13.2449847 9.14134994 13.3125 11.3125 C13.28497035 15.66906669 13.28497035 15.66906669 11.0625 18.25 C10.381875 18.8275 9.70125 19.405 9 20 C8.34523798 22.55930502 8.34523798 22.55930502 8 25 C20.85632688 24.93886411 33.7124495 24.86181244 46.56855488 24.76428509 C52.53779572 24.71950547 58.5069671 24.68026612 64.47631836 24.65356445 C70.23413893 24.62760721 75.99169329 24.58725875 81.74934959 24.53681374 C83.94900394 24.52009363 86.14870438 24.50861151 88.34841347 24.50238609 C91.42307247 24.4928009 94.49704244 24.46480864 97.5715332 24.43237305 C98.48647049 24.43380814 99.40140778 24.43524323 100.34407043 24.4367218 C101.5997583 24.41791458 101.5997583 24.41791458 102.8808136 24.39872742 C103.60810826 24.39411845 104.33540293 24.38950949 105.08473682 24.38476086 C107.51691411 23.89615614 108.42804916 22.86612284 110 21 C109.4329193 24.28906807 108.72922807 26.02102944 106 28 C102.8046875 28.32470703 102.8046875 28.32470703 98.875 28.2578125 C98.17286377 28.25119598 97.47072754 28.24457947 96.74731445 28.23776245 C94.49776338 28.21437375 92.24919737 28.17078396 90 28.125 C87.06256912 28.07817046 84.12512524 28.04009999 81.1875 28.0078125 C80.11307144 27.99479095 80.11307144 27.99479095 79.01693726 27.98150635 C74.17092467 27.94553375 69.45751123 28.24950957 64.64550781 28.77294922 C59.56455033 29.20902253 54.46996808 29.06266873 49.375 29 C47.23702809 28.97463853 45.09899955 28.95355553 42.9609375 28.9375 C41.56560791 28.92009766 41.56560791 28.92009766 40.14208984 28.90234375 C38.01725221 28.75802442 38.01725221 28.75802442 37 30 C32.40226878 30.28272641 27.79288233 30.23185965 23.1875 30.25 C21.89005859 30.270625 20.59261719 30.29125 19.25585938 30.3125 C18.00998047 30.31765625 16.76410156 30.3228125 15.48046875 30.328125 C14.33473389 30.3374707 13.18899902 30.34681641 12.00854492 30.35644531 C8.70557875 29.96511766 7.32319423 29.3449096 5 27 C4.609375 24.51953125 4.609375 24.51953125 4.75 21.8125 C4.78609375 20.91144531 4.8221875 20.01039062 4.859375 19.08203125 C4.90578125 18.39496094 4.9521875 17.70789063 5 17 C6.98 16.34 8.96 15.68 11 15 C10.34 12.03 9.68 9.06 9 6 C8.34 6 7.68 6 7 6 C6.34 4.68 5.68 3.36 5 2 C3.02 2.33 1.04 2.66 -1 3 C-0.67 2.01 -0.34 1.02 0 0 Z " fill="#D1B995" transform="translate(125,67)"/>
<path d="M0 0 C0.79921875 0.01804687 1.5984375 0.03609375 2.421875 0.0546875 C3.02515625 0.07789062 3.6284375 0.10109375 4.25 0.125 C4.25 0.455 4.25 0.785 4.25 1.125 C3.033125 1.228125 1.81625 1.33125 0.5625 1.4375 C-2.30576339 1.78410276 -3.72222375 2.10833425 -6.25 3.625 C-9.73686565 5.71711939 -12.71610256 5.78314428 -16.75 6.125 C-17.08 7.115 -17.41 8.105 -17.75 9.125 C-19.4 9.455 -21.05 9.785 -22.75 10.125 C-22.811875 10.723125 -22.87375 11.32125 -22.9375 11.9375 C-24.08271869 15.02078108 -25.92414947 15.51940311 -28.75 17.125 C-29.595625 18.011875 -30.44125 18.89875 -31.3125 19.8125 C-33.75 22.125 -33.75 22.125 -37.75 22.125 C-38.74 17.175 -39.73 12.225 -40.75 7.125 C-43.900792 6.074736 -46.30590726 5.92455365 -49.61791992 5.81298828 C-50.82998611 5.77164764 -52.04205231 5.73030701 -53.29084778 5.68771362 C-54.62487253 5.64805277 -55.95891353 5.60893518 -57.29296875 5.5703125 C-58.3150496 5.5389086 -58.3150496 5.5389086 -59.35777855 5.50687027 C-74.48750329 5.04728878 -89.61406665 4.97027142 -104.74975586 4.99462891 C-108.42221875 5.0004841 -112.09461106 4.99692377 -115.76707172 4.99105644 C-118.63655647 4.98746181 -121.50602403 4.98858162 -124.37550926 4.99118423 C-126.38643313 4.99216825 -128.39735769 4.98915078 -130.40827942 4.98605347 C-131.60941879 4.98920563 -132.81055817 4.99235779 -134.0480957 4.99560547 C-135.10487015 4.99640106 -136.16164459 4.99719666 -137.2504425 4.99801636 C-139.74910545 4.95736229 -139.74910545 4.95736229 -141.75 6.125 C-144.4223621 6.25915472 -147.07250488 6.16818541 -149.75 6.125 C-149.09 8.435 -148.43 10.745 -147.75 13.125 C-148.74 12.795 -149.73 12.465 -150.75 12.125 C-152.11623674 9.39252652 -151.878426 7.14301098 -151.75 4.125 C-151.42 3.795 -151.09 3.465 -150.75 3.125 C-149.22480724 3.21437803 -147.70318071 3.37037146 -146.1875 3.5625 C-144.94806641 3.71525391 -144.94806641 3.71525391 -143.68359375 3.87109375 C-143.04550781 3.95488281 -142.40742188 4.03867188 -141.75 4.125 C-141.42 3.135 -141.09 2.145 -140.75 1.125 C-132.17921353 1.10185784 -123.60844005 1.08407533 -115.03763008 1.07318783 C-111.05811588 1.06796311 -107.07862301 1.0608729 -103.09912109 1.04956055 C-99.26066757 1.03871709 -95.4222346 1.03272006 -91.58376694 1.03012276 C-90.11730501 1.02827115 -88.65084423 1.02465556 -87.18439102 1.01926994 C-85.13478388 1.01204017 -83.08526232 1.01100988 -81.03564453 1.01147461 C-79.283582 1.00814369 -79.283582 1.00814369 -77.49612427 1.00474548 C-74.75 1.125 -74.75 1.125 -72.75 2.125 C-70.88554797 2.2551419 -69.01691984 2.32759639 -67.1484375 2.37109375 C-66.01792969 2.40396484 -64.88742188 2.43683594 -63.72265625 2.47070312 C-61.34773831 2.53130092 -58.97273521 2.58865884 -56.59765625 2.64257812 C-50.37517601 2.829323 -44.65879252 3.07343351 -38.75 5.125 C-36.34446456 8.61690629 -35.36340559 11.95384201 -34.75 16.125 C-31.16920687 13.99605572 -27.6373424 11.80246492 -24.125 9.5625 C-23.18398437 8.96308594 -22.24296875 8.36367187 -21.2734375 7.74609375 C-19.42118376 6.55617842 -17.58178521 5.34619014 -15.75 4.125 C-13.41989091 3.44715008 -11.08640176 2.78083207 -8.75 2.125 C-8.11449219 1.77695313 -7.47898437 1.42890625 -6.82421875 1.0703125 C-4.38068415 -0.04331344 -2.66969645 -0.07852048 0 0 Z " fill="#BA9D71" transform="translate(272.75,108.875)"/>
<path d="M0 0 C3.0625 0.125 3.0625 0.125 5.0625 1.125 C5.206875 1.764375 5.35125 2.40375 5.5 3.0625 C5.92415035 5.50710855 5.92415035 5.50710855 9.0625 7.125 C9.0625 7.785 9.0625 8.445 9.0625 9.125 C13.3525 9.125 17.6425 9.125 22.0625 9.125 C21.7325 9.785 21.4025 10.445 21.0625 11.125 C15.3414958 12.64281744 11.1447615 11.94084759 6.0625 9.125 C3.0625 6.03125 3.0625 6.03125 3.0625 3.125 C2.0725 3.125 1.0825 3.125 0.0625 3.125 C-0.1953125 3.71023437 -0.453125 4.29546875 -0.71875 4.8984375 C-2.03338946 7.30018266 -3.46940795 8.85696231 -5.4375 10.75 C-6.0459375 11.34039062 -6.654375 11.93078125 -7.28125 12.5390625 C-7.8278125 13.06242187 -8.374375 13.58578125 -8.9375 14.125 C-9.5975 14.785 -10.2575 15.445 -10.9375 16.125 C-10.380625 16.681875 -9.82375 17.23875 -9.25 17.8125 C-8.486875 18.575625 -7.72375 19.33875 -6.9375 20.125 C-6.050625 20.95 -5.16375 21.775 -4.25 22.625 C-1.96862027 25.09135647 -1.5421198 25.98895005 -0.9375 29.125 C4.68570488 28.19232205 4.68570488 28.19232205 9.125 25 C11.0625 23.125 11.0625 23.125 14.75 22.8125 C18.0625 23.125 18.0625 23.125 19.0625 24.125 C18.91070131 27.62775477 18.65891797 31.10932685 18.37890625 34.60351562 C18.06853445 38.96764593 18.12591567 42.80707079 19.0625 47.125 C15.39235202 42.33785046 14.60923898 39.17550751 15.0625 33.125 C15.59403185 30.39801049 16.2979332 27.80098381 17.0625 25.125 C11.58211001 26.28431327 9.24779813 27.52401381 6.0625 32.125 C2.97076248 33.67086876 0.46820448 33.41859521 -2.9375 33.125 C-5.96042361 31.00078341 -6.80616492 29.75540837 -7.5625 26.125 C-9.26224276 22.41647035 -10.3639271 22.21488421 -14.0625 20.75 C-15.68001961 20.18638835 -17.30310833 19.63763207 -18.9375 19.125 C-18.9375 16.485 -18.9375 13.845 -18.9375 11.125 C-17.844375 10.856875 -16.75125 10.58875 -15.625 10.3125 C-12.10694687 9.17956764 -11.14263582 8.83130305 -8.9375 6.125 C-2.9375 0.125 -2.9375 0.125 0 0 Z " fill="#B59A78" transform="translate(80.9375,87.875)"/>
<path d="M0 0 C2.31 0.33 4.62 0.66 7 1 C7.2475 1.78375 7.495 2.5675 7.75 3.375 C9.15389099 6.32317108 10.00675737 6.9024777 13 8 C13.2475 7.21625 13.495 6.4325 13.75 5.625 C15.15389099 2.67682892 16.00675737 2.0975223 19 1 C17.125 5.875 17.125 5.875 16 7 C15.58253392 9.87364791 15.58253392 9.87364791 16 13 C16.66 13.66 17.32 14.32 18 15 C20 17 20 17 20 23 C13.565 23.495 13.565 23.495 7 24 C6.95758277 21.66705225 6.95907063 19.33297433 7 17 C7.33 16.67 7.66 16.34 8 16 C8.21326403 10.3952291 8.21326403 10.3952291 7 5 C4.71108972 3.62665383 2.54247553 2.84749184 0 2 C-0.12375 2.61875 -0.2475 3.2375 -0.375 3.875 C-1 6 -1 6 -3 8 C-3.47854408 12.28109582 -3.47854408 12.28109582 -1.5 15.9375 C0.70653814 18.97148994 0.33194271 21.34863018 0 25 C-0.66 25.99 -1.32 26.98 -2 28 C-4.8984375 28.43359375 -4.8984375 28.43359375 -8.375 28.4375 C-9.51710938 28.45683594 -10.65921875 28.47617188 -11.8359375 28.49609375 C-15.56517315 27.91138643 -16.77304289 26.99697461 -19 24 C-18.75 21.75 -18.75 21.75 -18 20 C-15 22 -15 22 -14 25 C-12.54207116 25.05399736 -11.08357288 25.09279177 -9.625 25.125 C-8.81289062 25.14820312 -8.00078125 25.17140625 -7.1640625 25.1953125 C-4.78657757 25.21370051 -4.78657757 25.21370051 -3 23 C-2.58333333 20.5 -2.58333333 20.5 -3 18 C-3.99 17.34 -4.98 16.68 -6 16 C-6.63870993 12.96756637 -6.52305018 10.04831398 -6 7 C-4.125 5.1875 -4.125 5.1875 -2 4 C-0.7483533 1.91665365 -0.7483533 1.91665365 0 0 Z " fill="#81685B" transform="translate(105,69)"/>
<path d="M0 0 C0.53625 0.2475 1.0725 0.495 1.625 0.75 C-1.64364549 4.26076738 -4.94223581 6.79261942 -9.4296875 8.55859375 C-11.98058477 10.12089027 -12.22448803 11.34239884 -13 14.1875 C-13.86296373 17.26878815 -14.55521269 19.02031903 -16.375 21.75 C-17.05986725 23.07407669 -17.72370203 24.40909241 -18.375 25.75 C-18.91125 26.719375 -19.4475 27.68875 -20 28.6875 C-21.53712953 31.55160465 -21.53712953 31.55160465 -21.375 34.125 C-21.375 38.06829757 -22.89441022 41.11021679 -24.375 44.75 C-25.035 44.75 -25.695 44.75 -26.375 44.75 C-27.035 46.07 -27.695 47.39 -28.375 48.75 C-41.905 48.75 -55.435 48.75 -69.375 48.75 C-69.375 48.42 -69.375 48.09 -69.375 47.75 C-68.14366333 47.71241577 -68.14366333 47.71241577 -66.88745117 47.67407227 C-63.78791561 47.57788655 -60.68849195 47.47873189 -57.58911133 47.37768555 C-55.60960818 47.31401523 -53.62999969 47.25364702 -51.65039062 47.19335938 C-44.19301687 46.94792682 -36.79549236 46.53859059 -29.375 45.75 C-29.31747559 45.01177002 -29.25995117 44.27354004 -29.20068359 43.51293945 C-28.625 36.125 -28.625 36.125 -26.375 32.75 C-26.00945127 31.3040517 -25.70054816 29.84305927 -25.4375 28.375 C-24.33951729 23.09953619 -22.96765338 19.81176892 -18.375 16.75 C-17.70549581 15.08447114 -17.03910244 13.41769007 -16.375 11.75 C-6.12669056 -0.6449148 -6.12669056 -0.6449148 0 0 Z " fill="#B49C81" transform="translate(260.375,43.25)"/>
<path d="M0 0 C0.99 0.495 0.99 0.495 2 1 C-2.23503743 4.52919786 -7.20281581 6.7262822 -12.1875 8.99609375 C-14.17157674 9.87170237 -14.17157674 9.87170237 -15 12 C-17.75976562 12.39477539 -17.75976562 12.39477539 -21.40625 12.59765625 C-22.70691406 12.67693359 -24.00757813 12.75621094 -25.34765625 12.83789062 C-26.73173605 12.91340078 -28.11585136 12.98826253 -29.5 13.0625 C-32.19832832 13.21415879 -34.89598512 13.37339731 -37.59375 13.53515625 C-39.39875977 13.63389038 -39.39875977 13.63389038 -41.24023438 13.73461914 C-43.90787824 13.69581944 -43.90787824 13.69581944 -45 15 C-46.7179049 15.09787335 -48.43948679 15.13207792 -50.16015625 15.140625 C-62.16087823 15.31575346 -73.72807239 15.90243228 -85.5 18.375 C-86.51328369 18.58415039 -87.52656738 18.79330078 -88.57055664 19.00878906 C-94.4290843 20.33029712 -94.4290843 20.33029712 -99 24 C-101.30988315 24.74386068 -103.64315944 25.42190703 -106 26 C-106 25.34 -106 24.68 -106 24 C-105.195625 23.71125 -104.39125 23.4225 -103.5625 23.125 C-100.8673532 22.26737432 -100.8673532 22.26737432 -100 20 C-97.8203125 19.21875 -97.8203125 19.21875 -95.125 18.5 C-91.84478965 17.62017682 -89.87188369 16.91458912 -87 15 C-83.71938679 14.08801486 -80.35339482 13.58048113 -77 13 C-75.47052734 12.71769531 -75.47052734 12.71769531 -73.91015625 12.4296875 C-67.31990198 11.29536495 -61.04866712 10.82368299 -54.36328125 11.02734375 C-51.64383889 11.00523446 -49.10473818 10.8249316 -46.41015625 10.52734375 C-42.49902802 10.10576081 -38.62790429 9.88998979 -34.6953125 9.7890625 C-33.61765625 9.76070312 -32.54 9.73234375 -31.4296875 9.703125 C-29.20330698 9.65049189 -26.97671027 9.60639345 -24.75 9.5703125 C-23.68007813 9.539375 -22.61015625 9.5084375 -21.5078125 9.4765625 C-20.54504395 9.45674316 -19.58227539 9.43692383 -18.59033203 9.41650391 C-15.5851598 8.93329714 -14.28957952 7.95092397 -12 6 C-10.01753602 4.96567096 -8.01586684 3.96761608 -6 3 C-4.9275 2.4225 -3.855 1.845 -2.75 1.25 C-1.8425 0.8375 -0.935 0.425 0 0 Z " fill="#937650" transform="translate(356,95)"/>
<path d="M0 0 C1.36875871 0.00119848 2.73751826 0.00164356 4.10627747 0.00138855 C6.97658455 0.00294617 9.8467657 0.01115936 12.71704102 0.0246582 C16.29307989 0.04131181 19.86897838 0.04537653 23.44505119 0.04486275 C37.71649008 0.04526311 51.98601944 0.17179504 66.25255775 0.56168175 C67.62006283 0.59839036 68.98765139 0.63212208 70.35530663 0.66272926 C72.24013324 0.70640465 74.124613 0.76435136 76.0090332 0.82299805 C77.07684525 0.85322556 78.14465729 0.88345306 79.24482727 0.91459656 C81.89453125 1.23046875 81.89453125 1.23046875 84.89453125 3.23046875 C84.56453125 3.89046875 84.23453125 4.55046875 83.89453125 5.23046875 C83.18363846 5.06970352 82.47274567 4.90893829 81.74031067 4.74330139 C78.8921725 4.23004368 76.25358336 4.07236395 73.36206055 4.02514648 C72.26897583 4.0052063 71.17589111 3.98526611 70.04968262 3.96472168 C68.86797485 3.94800415 67.68626709 3.93128662 66.46875 3.9140625 C64.60833069 3.88282288 64.60833069 3.88282288 62.71032715 3.85095215 C59.35953103 3.79620569 56.00873148 3.7458383 52.6578331 3.69804001 C50.58474154 3.66800801 48.51168491 3.63619364 46.43862915 3.60379028 C23.59020764 3.24782112 0.7456346 3.09635392 -22.10546875 3.23046875 C-21.77546875 3.99359375 -21.44546875 4.75671875 -21.10546875 5.54296875 C-20.10546875 8.23046875 -20.10546875 8.23046875 -20.10546875 11.23046875 C-22.10546875 9.54296875 -22.10546875 9.54296875 -24.10546875 7.23046875 C-24.23046875 4.5859375 -24.23046875 4.5859375 -24.10546875 2.23046875 C-16.03495132 0.18184542 -8.29628615 -0.04683125 0 0 Z " fill="#82664E" transform="translate(147.10546875,112.76953125)"/>
<path d="M0 0 C1.92875977 0.07734375 1.92875977 0.07734375 3.89648438 0.15625 C5.23438705 0.2211061 6.57227757 0.28621333 7.91015625 0.3515625 C9.27534646 0.40989704 10.64058125 0.46719805 12.00585938 0.5234375 C15.32870441 0.66433552 18.65072801 0.81569584 21.97265625 0.9765625 C21.97265625 1.3065625 21.97265625 1.6365625 21.97265625 1.9765625 C10.75265625 2.3065625 -0.46734375 2.6365625 -12.02734375 2.9765625 C-12.35734375 3.6365625 -12.68734375 4.2965625 -13.02734375 4.9765625 C-15.99734375 4.9765625 -18.96734375 4.9765625 -22.02734375 4.9765625 C-22.51941648 10.26634433 -21.31053448 11.9751738 -18.02734375 15.9765625 C-17.58984375 18.6015625 -17.58984375 18.6015625 -18.02734375 20.9765625 C-19.40234375 22.7890625 -19.40234375 22.7890625 -21.02734375 23.9765625 C-21.68734375 23.9765625 -22.34734375 23.9765625 -23.02734375 23.9765625 C-23.35734375 24.9665625 -23.68734375 25.9565625 -24.02734375 26.9765625 C-25.01734375 26.9765625 -26.00734375 26.9765625 -27.02734375 26.9765625 C-27.02734375 25.9865625 -27.02734375 24.9965625 -27.02734375 23.9765625 C-27.68734375 23.9765625 -28.34734375 23.9765625 -29.02734375 23.9765625 C-29.02734375 23.3165625 -29.02734375 22.6565625 -29.02734375 21.9765625 C-29.68734375 21.9765625 -30.34734375 21.9765625 -31.02734375 21.9765625 C-31.21484375 19.1640625 -31.21484375 19.1640625 -31.02734375 15.9765625 C-30.55296875 15.5228125 -30.07859375 15.0690625 -29.58984375 14.6015625 C-27.66783503 12.60267343 -27.75896901 11.68707088 -27.52734375 8.9765625 C-27.15928819 5.19184028 -27.15928819 5.19184028 -25.83984375 3.0390625 C-23.25267464 1.52244612 -21.00127543 1.21933243 -18.02734375 0.9765625 C-17.38796875 1.1621875 -16.74859375 1.3478125 -16.08984375 1.5390625 C-13.81966318 2.19454083 -13.81966318 2.19454083 -10.83764648 1.00244141 C-6.95559339 -0.04275543 -3.99787631 -0.17768339 0 0 Z " fill="#ECCF9A" transform="translate(144.02734375,108.0234375)"/>
<path d="M0 0 C0.87720703 -0.01611328 1.75441406 -0.03222656 2.65820312 -0.04882812 C8.27843894 -0.05303174 12.18691643 0.72693223 17.1875 3.3125 C17.1875 4.3025 17.1875 5.2925 17.1875 6.3125 C16.300625 6.1475 15.41375 5.9825 14.5 5.8125 C6.13602767 4.65414945 -2.32701243 3.98755163 -9.8125 8.3125 C-10.4725 8.9725 -11.1325 9.6325 -11.8125 10.3125 C-12.534375 10.56 -13.25625 10.8075 -14 11.0625 C-16.78663197 12.3010031 -17.99884017 13.3981114 -20.125 15.5 C-22.20752511 17.39445566 -23.20488764 18.26666258 -26.0390625 18.48046875 C-28.25 18.1875 -28.25 18.1875 -31.8125 17.3125 C-31.8125 16.9825 -31.8125 16.6525 -31.8125 16.3125 C-29.5025 16.3125 -27.1925 16.3125 -24.8125 16.3125 C-24.8125 14.9925 -24.8125 13.6725 -24.8125 12.3125 C-23.16796875 10.49609375 -23.16796875 10.49609375 -21 8.75 C-18.04163111 6.35420421 -18.04163111 6.35420421 -15.30078125 3.72265625 C-10.8176012 -0.52518627 -5.8082956 -0.02105981 0 0 Z " fill="#795F4C" transform="translate(460.8125,111.6875)"/>
<path d="M0 0 C0.33 -0.66 0.66 -1.32 1 -2 C1.66 -1.01 2.32 -0.02 3 1 C3.99 1.33 4.98 1.66 6 2 C5.67 3.32 5.34 4.64 5 6 C4.236875 5.690625 3.47375 5.38125 2.6875 5.0625 C-1.67966815 3.33594515 -5.31435382 2.74499553 -10 2.4375 C-11.85625 2.31181641 -11.85625 2.31181641 -13.75 2.18359375 C-19.51110663 1.85814662 -23.18011313 2.80834382 -28 6 C-31.51241123 9.17012228 -34.75663502 12.55806166 -38 16 C-39.32880592 17.33784542 -40.6605365 18.67282515 -42 20 C-42 13.59975148 -39.41201489 10.5846959 -35.203125 5.91796875 C-32.87323908 3.88964608 -30.87616861 3.05237295 -28 2 C-27.34 1.34 -26.68 0.68 -26 0 C-17.75756533 -3.35846692 -8.29918152 -3.08806754 0 0 Z " fill="#593B1F" transform="translate(478,118)"/>
<path d="M0 0 C2.86724686 0.57344937 3.8614515 0.8614515 6 3 C6.44921875 5.05859375 6.44921875 5.05859375 6.6875 7.4375 C6.77386719 8.21996094 6.86023438 9.00242187 6.94921875 9.80859375 C7 12 7 12 6 15 C5.93259135 16.56118428 5.91485544 18.1250252 5.9375 19.6875 C5.94652344 20.49574219 5.95554687 21.30398437 5.96484375 22.13671875 C5.97644531 22.75160156 5.98804687 23.36648437 6 24 C4.68 24 3.36 24 2 24 C-0.20067421 24.93283296 -0.20067421 24.93283296 -2 26 C-1.67 25.01 -1.34 24.02 -1 23 C-0.63288941 17.95222942 -0.96819219 15.91608509 -4 12 C-4.375 8.9375 -4.375 8.9375 -4 6 C-2.5625 4.3125 -2.5625 4.3125 -1 3 C-0.67 2.01 -0.34 1.02 0 0 Z " fill="#EBCF9E" transform="translate(105,71)"/>
<path d="M0 0 C1.14919922 -0.01224609 2.29839844 -0.02449219 3.48242188 -0.03710938 C4.58263672 -0.03904297 5.68285156 -0.04097656 6.81640625 -0.04296875 C7.8226001 -0.04707764 8.82879395 -0.05118652 9.86547852 -0.05541992 C12.4375 0.1875 12.4375 0.1875 15.4375 2.1875 C14.58631592 2.19160889 13.73513184 2.19571777 12.8581543 2.19995117 C9.64629916 2.22720539 6.43569263 2.27657539 3.22436523 2.34008789 C1.84459886 2.36303319 0.46466318 2.37760753 -0.9152832 2.38305664 C-10.40453776 2.42786605 -17.22203823 3.71449594 -25.5625 8.1875 C-28.86793946 9.56961204 -32.25310961 10.7449959 -35.6171875 11.9765625 C-38.47934596 13.153312 -40.92170708 14.58638933 -43.5625 16.1875 C-45.48554671 17.03364055 -47.42412479 17.84516129 -49.375 18.625 C-53.07738289 20.12695311 -56.65511131 21.69621054 -60.1875 23.5625 C-61.30125 24.09875 -62.415 24.635 -63.5625 25.1875 C-64.2225 24.8575 -64.8825 24.5275 -65.5625 24.1875 C-61.16291541 21.49975378 -56.64733277 19.08691888 -52.0859375 16.6875 C-49.59051302 15.35282689 -49.59051302 15.35282689 -48.04296875 13.62109375 C-46.05653219 11.69755228 -44.11270314 11.12591343 -41.5 10.25 C-37.76854245 8.96193428 -34.09008514 7.62261707 -30.4375 6.125 C-19.92104051 1.87152753 -11.36256745 0.00639424 0 0 Z " fill="#745630" transform="translate(406.5625,80.8125)"/>
<path d="M0 0 C3.45809378 1.28673257 6.7128371 1.33823316 10.3828125 1.4609375 C12.6875 2 12.6875 2 14.4921875 4.0390625 C15.08386719 5.00972656 15.08386719 5.00972656 15.6875 6 C14.89085937 5.68289062 14.09421875 5.36578125 13.2734375 5.0390625 C8.90612361 3.7735881 4.83469822 3.5480985 0.3125 3.375 C-0.93466797 3.31699219 -0.93466797 3.31699219 -2.20703125 3.2578125 C-4.24185156 3.16425754 -6.27714416 3.08107287 -8.3125 3 C-8.3125 2.34 -8.3125 1.68 -8.3125 1 C-13.38484884 1.09353106 -18.45672013 1.19962375 -23.52856445 1.31738281 C-25.25407708 1.35567345 -26.97966956 1.39052621 -28.70532227 1.421875 C-31.18534895 1.46752404 -33.66482591 1.52551781 -36.14453125 1.5859375 C-37.30248955 1.60326431 -37.30248955 1.60326431 -38.48384094 1.62094116 C-42.26496674 1.72521273 -44.09268835 1.8534589 -47.3125 4 C-49.64449388 4.07905064 -51.98082622 4.08798769 -54.3125 4 C-51.15540434 0.34441555 -47.87385422 -0.84493319 -43.10205078 -1.31884766 C-41.32290283 -1.365979 -41.32290283 -1.365979 -39.5078125 -1.4140625 C-38.20199219 -1.45273438 -36.89617187 -1.49140625 -35.55078125 -1.53125 C-34.17969039 -1.56262657 -32.80859661 -1.59387556 -31.4375 -1.625 C-30.07419539 -1.66323864 -28.71091343 -1.70229367 -27.34765625 -1.7421875 C-5.42718357 -2.34689019 -5.42718357 -2.34689019 0 0 Z " fill="#664827" transform="translate(438.3125,84)"/>
<path d="M0 0 C1.134375 0.020625 2.26875 0.04125 3.4375 0.0625 C3.540625 0.68125 3.64375 1.3 3.75 1.9375 C4.31275373 4.42776484 4.31275373 4.42776484 7.4375 6.0625 C7.4375 6.7225 7.4375 7.3825 7.4375 8.0625 C11.7275 8.0625 16.0175 8.0625 20.4375 8.0625 C20.1075 8.7225 19.7775 9.3825 19.4375 10.0625 C13.7164958 11.58031744 9.5197615 10.87834759 4.4375 8.0625 C1.4375 4.96875 1.4375 4.96875 1.4375 2.0625 C0.4475 2.0625 -0.5425 2.0625 -1.5625 2.0625 C-1.8203125 2.64773437 -2.078125 3.23296875 -2.34375 3.8359375 C-3.65838946 6.23768266 -5.09440795 7.79446231 -7.0625 9.6875 C-7.6709375 10.27789062 -8.279375 10.86828125 -8.90625 11.4765625 C-9.4528125 11.99992187 -9.999375 12.52328125 -10.5625 13.0625 C-11.2225 13.7225 -11.8825 14.3825 -12.5625 15.0625 C-12.005625 15.619375 -11.44875 16.17625 -10.875 16.75 C-10.111875 17.513125 -9.34875 18.27625 -8.5625 19.0625 C-7.655 19.908125 -6.7475 20.75375 -5.8125 21.625 C-3.5625 24.0625 -3.5625 24.0625 -3.5625 27.0625 C-4.05878906 26.60359375 -4.55507812 26.1446875 -5.06640625 25.671875 C-9.34724931 21.80530707 -13.44603821 18.72732385 -18.5625 16.0625 C-18.5625 14.7425 -18.5625 13.4225 -18.5625 12.0625 C-17.54929687 11.62550781 -17.54929687 11.62550781 -16.515625 11.1796875 C-10.79979342 8.55304813 -7.49426073 6.67108575 -4.5625 1.0625 C-3.5625 0.0625 -3.5625 0.0625 0 0 Z " fill="#D9C2A2" transform="translate(82.5625,88.9375)"/>
<path d="M0 0 C2.31 0 4.62 0 7 0 C7.12375 0.928125 7.12375 0.928125 7.25 1.875 C7.80607909 4.17381462 7.80607909 4.17381462 10 5.1875 C10.66 5.455625 11.32 5.72375 12 6 C13.56941198 7.56941198 13.2449847 9.14134994 13.3125 11.3125 C13.28497035 15.66906669 13.28497035 15.66906669 11.0625 18.25 C10.381875 18.8275 9.70125 19.405 9 20 C8.67 21.65 8.34 23.3 8 25 C27.14 25 46.28 25 66 25 C66 25.33 66 25.66 66 26 C51.28892567 26.63998194 36.59971261 27.10277262 21.875 27.125 C20.61921143 27.12951172 19.36342285 27.13402344 18.06958008 27.13867188 C16.90966553 27.13673828 15.74975098 27.13480469 14.5546875 27.1328125 C13.52843262 27.13168457 12.50217773 27.13055664 11.44482422 27.12939453 C9 27 9 27 7 26 C6.8125 22.6875 6.8125 22.6875 7 19 C8 18 9 17 10 16 C10.26641894 12.27013478 10.1845131 9.55353929 9 6 C8.34 6 7.68 6 7 6 C6.34 4.68 5.68 3.36 5 2 C3.02 2.33 1.04 2.66 -1 3 C-0.67 2.01 -0.34 1.02 0 0 Z " fill="#957D6D" transform="translate(125,67)"/>
<path d="M0 0 C-1 2 -1 2 -4 4 C-4.886875 4.144375 -5.77375 4.28875 -6.6875 4.4375 C-9.9247629 4.98722389 -12.76869035 5.91587959 -15.80859375 7.14453125 C-18 8 -18 8 -20.34765625 8.69921875 C-28.52061849 11.35446005 -33.37062529 16.79270469 -39 23 C-39.63671875 21.15625 -39.63671875 21.15625 -40 19 C-37.8125 16.5 -37.8125 16.5 -35 14 C-34.34 13.29875 -33.68 12.5975 -33 11.875 C-30.82825694 9.83899088 -28.5693439 8.48751489 -26 7 C-25.34 6.34 -24.68 5.68 -24 5 C-22.68 5 -21.36 5 -20 5 C-19.67 4.01 -19.34 3.02 -19 2 C-16.39610703 1.66440045 -13.7919239 1.33143142 -11.1875 1 C-10.44951172 0.90460937 -9.71152344 0.80921875 -8.95117188 0.7109375 C-5.94569605 0.33015323 -3.03285559 0 0 0 Z " fill="#B69F83" transform="translate(286,38)"/>
<path d="M0 0 C6.64219336 -0.58607588 11.22810536 3.0251382 16.3203125 6.8046875 C18.15519874 8.15807911 18.15519874 8.15807911 20.9375 9.625 C21.618125 10.07875 22.29875 10.5325 23 11 C23 11.99 23 12.98 23 14 C20.525 13.505 20.525 13.505 18 13 C18 12.34 18 11.68 18 11 C17.21625 10.87625 16.4325 10.7525 15.625 10.625 C13 10 13 10 11 8 C8.85137655 7.40912855 6.68025509 6.89815124 4.5 6.4375 C-1.82625483 5.08687259 -1.82625483 5.08687259 -4 4 C-5.3734635 3.84995027 -6.7528526 3.75161994 -8.1328125 3.68359375 C-8.93847656 3.64169922 -9.74414062 3.59980469 -10.57421875 3.55664062 C-11.41597656 3.51732422 -12.25773437 3.47800781 -13.125 3.4375 C-13.97449219 3.39431641 -14.82398438 3.35113281 -15.69921875 3.30664062 C-17.79928223 3.20045764 -19.89961948 3.09971503 -22 3 C-22 2.67 -22 2.34 -22 2 C-14.74 2 -7.48 2 0 2 C0 1.34 0 0.68 0 0 Z " fill="#785C3D" transform="translate(468,21)"/>
<path d="M0 0 C1.47796906 0.19671742 2.95717962 0.38433755 4.4375 0.5625 C5.613125 0.706875 6.78875 0.85125 8 1 C8 1.33 8 1.66 8 2 C2.21408489 2.10477512 -3.29309366 1.99250545 -9 1 C-9 1.99 -9 2.98 -9 4 C-2.73 4 3.54 4 10 4 C10 4.66 10 5.32 10 6 C4.06 6 -1.88 6 -8 6 C-7.34 6.66 -6.68 7.32 -6 8 C-4.88750539 12.25759216 -4.5142983 15.85860101 -6.25 19.9375 C-8 22 -8 22 -11 24 C-10.34 22.35 -9.68 20.7 -9 19 C-8.34 19 -7.68 19 -7 19 C-7.33 18.01 -7.66 17.02 -8 16 C-9.65 17.65 -11.3 19.3 -13 21 C-13.66 20.67 -14.32 20.34 -15 20 C-14.34515625 19.49984375 -13.6903125 18.9996875 -13.015625 18.484375 C-10.31034172 15.14995607 -10.54901078 12.33935756 -10.75 8.25 C-10.76804687 7.55261719 -10.78609375 6.85523438 -10.8046875 6.13671875 C-10.85161446 4.42388461 -10.92335395 2.71176176 -11 1 C-6.92362978 -1.31289702 -4.62054088 -0.84709916 0 0 Z " fill="#866C53" transform="translate(403,30)"/>
<path d="M0 0 C1.5 1 1.5 1 3 3 C3.33190332 5.75479755 3.18037589 8.20417366 3 11 C2.67 11.33 2.34 11.66 2 12 C1.63239269 14.32817964 1.29758419 16.6618385 1 19 C1.84304687 18.75443359 1.84304687 18.75443359 2.703125 18.50390625 C5.13059056 17.97135003 7.26889681 17.90101319 9.75 17.9375 C10.54921875 17.94652344 11.3484375 17.95554687 12.171875 17.96484375 C12.77515625 17.97644531 13.3784375 17.98804687 14 18 C14 16.02 14 14.04 14 12 C13.01 11.67 12.02 11.34 11 11 C10.67 10.01 10.34 9.02 10 8 C12.4375 8.75 12.4375 8.75 15 10 C16.62484302 13.37467396 16.07068911 17.32416633 16 21 C12.41118287 22.6947192 10.7686692 23.00497845 7 22 C6.01 22.66 5.02 23.32 4 24 C1.3125 23.625 1.3125 23.625 -1 23 C-1.10673809 16.5482753 -0.89658536 10.38817068 0 4 C0 2.68 0 1.36 0 0 Z " fill="#D5BC9A" transform="translate(111,74)"/>
<path d="M0 0 C1.64899292 -0.01933594 1.64899292 -0.01933594 3.33129883 -0.0390625 C8.95898574 -0.04612193 13.54692242 0.39292557 18.875 2.1875 C20.73125 2.3421875 20.73125 2.3421875 22.625 2.5 C25.875 3.1875 25.875 3.1875 27.8125 5.75 C28.163125 6.554375 28.51375 7.35875 28.875 8.1875 C28.215 8.5175 27.555 8.8475 26.875 9.1875 C26.38 7.7025 26.38 7.7025 25.875 6.1875 C10.47560395 2.55478598 -4.93669675 2.63611201 -20.6875 2.5 C-23.35616323 2.46832303 -26.02474543 2.43226632 -28.69335938 2.39648438 C-35.1704674 2.31233608 -41.64759212 2.24368103 -48.125 2.1875 C-48.125 1.8575 -48.125 1.5275 -48.125 1.1875 C-32.0873852 0.62144883 -16.04846569 0.0898256 0 0 Z " fill="#64472D" transform="translate(405.125,126.8125)"/>
<path d="M0 0 C0.6875 1.5625 0.6875 1.5625 1 4 C0.28250015 5.53749967 -0.43843263 7.07348256 -1.17578125 8.6015625 C-2.71332453 13.07574056 -2.92264462 17.8857437 -3.375 22.57421875 C-4.29116087 27.59592554 -4.29116087 27.59592554 -7 30 C-10.08579475 30.57181436 -13.13319535 30.46390969 -16.26171875 30.390625 C-17.16751175 30.38496521 -18.07330475 30.37930542 -19.00654602 30.37347412 C-21.90073411 30.35107616 -24.7936859 30.30087392 -27.6875 30.25 C-29.64907067 30.2299394 -31.61066073 30.21168786 -33.57226562 30.1953125 C-38.38198706 30.15120018 -43.1907839 30.08214941 -48 30 C-48 29.67 -48 29.34 -48 29 C-46.76866333 28.96241577 -46.76866333 28.96241577 -45.51245117 28.92407227 C-42.41291561 28.82788655 -39.31349195 28.72873189 -36.21411133 28.62768555 C-34.23460818 28.56401523 -32.25499969 28.50364702 -30.27539062 28.44335938 C-22.81801687 28.19792682 -15.42049236 27.78859059 -8 27 C-7.91371338 25.89265503 -7.91371338 25.89265503 -7.82568359 24.76293945 C-7.25 17.375 -7.25 17.375 -5 14 C-4.63445127 12.5540517 -4.32554816 11.09305927 -4.0625 9.625 C-3.30354272 5.90307348 -2.22584114 3.13641252 0 0 Z " fill="#998375" transform="translate(239,62)"/>
<path d="M0 0 C10.23 0 20.46 0 31 0 C31 0.99 31 1.98 31 3 C20.77608414 4.31921495 10.17624235 4.93833188 0 3 C0 2.01 0 1.02 0 0 Z " fill="#A1886B" transform="translate(340,60)"/>
<path d="M0 0 C1.39456452 0.00667256 2.78911118 0.01863093 4.18359375 0.03515625 C4.89451172 0.03966797 5.60542969 0.04417969 6.33789062 0.04882812 C8.09899388 0.06064761 9.86005411 0.07858362 11.62109375 0.09765625 C11.62109375 0.42765625 11.62109375 0.75765625 11.62109375 1.09765625 C11.01523437 1.11183594 10.409375 1.12601562 9.78515625 1.140625 C-0.32960704 1.71638845 -8.29829507 5.91870324 -15.37890625 13.09765625 C-17.24139711 15.29583433 -17.24139711 15.29583433 -18.37890625 17.09765625 C-21.01890625 16.76765625 -23.65890625 16.43765625 -26.37890625 16.09765625 C-26.37890625 15.76765625 -26.37890625 15.43765625 -26.37890625 15.09765625 C-24.06890625 15.09765625 -21.75890625 15.09765625 -19.37890625 15.09765625 C-19.37890625 13.77765625 -19.37890625 12.45765625 -19.37890625 11.09765625 C-15.30948046 6.18263549 -10.2787668 3.26495196 -4.37890625 1.09765625 C-3.37890625 0.09765625 -3.37890625 0.09765625 0 0 Z " fill="#8D7560" transform="translate(455.37890625,112.90234375)"/>
<path d="M0 0 C2.64 0 5.28 0 8 0 C8.00257813 0.88042969 8.00515625 1.76085938 8.0078125 2.66796875 C8.04648437 3.82941406 8.08515625 4.99085937 8.125 6.1875 C8.14820313 7.33605469 8.17140625 8.48460937 8.1953125 9.66796875 C9.06040391 13.25011912 10.15676744 14.86086271 13.13720703 17.04174805 C16.56424962 18.80467625 20.07801882 19.04542421 23.875 19.3125 C24.65875 19.38533203 25.4425 19.45816406 26.25 19.53320312 C28.16497897 19.70835364 30.08235783 19.85692425 32 20 C32 20.33 32 20.66 32 21 C28.93696422 21.08115993 25.87609185 21.14057409 22.8125 21.1875 C21.94818359 21.21263672 21.08386719 21.23777344 20.19335938 21.26367188 C15.35055062 21.31933634 11.86490218 21.30477143 8 18 C8 17.34 8 16.68 8 16 C7.34 16 6.68 16 6 16 C6 11.05 6 6.1 6 1 C3.69 1.33 1.38 1.66 -1 2 C-0.67 1.34 -0.34 0.68 0 0 Z " fill="#836A59" transform="translate(326,39)"/>
<path d="M0 0 C0.66 0.33 1.32 0.66 2 1 C-2.23503743 4.52919786 -7.20281581 6.7262822 -12.1875 8.99609375 C-14.17157674 9.87170237 -14.17157674 9.87170237 -15 12 C-24.67846426 12.64217298 -34.29381339 13.16831537 -44 13 C-40.16623671 10.44415781 -37.53519849 9.87882453 -33.03515625 9.7890625 C-32.07029297 9.76070312 -31.10542969 9.73234375 -30.11132812 9.703125 C-28.08286515 9.65114645 -26.05419058 9.60684395 -24.02539062 9.5703125 C-23.05923828 9.539375 -22.09308594 9.5084375 -21.09765625 9.4765625 C-20.21601807 9.45674316 -19.33437988 9.43692383 -18.42602539 9.41650391 C-15.53906447 8.92086585 -14.21946888 7.86513415 -12 6 C-10.01753602 4.96567096 -8.01586684 3.96761608 -6 3 C-4.9275 2.4225 -3.855 1.845 -2.75 1.25 C-1.8425 0.8375 -0.935 0.425 0 0 Z " fill="#8A6C43" transform="translate(356,95)"/>
<path d="M0 0 C3.1875 0.5 3.1875 0.5 4.1875 1.5 C4.03570131 5.00275477 3.78391797 8.48432685 3.50390625 11.97851562 C3.19353445 16.34264593 3.25091567 20.18207079 4.1875 24.5 C0.51735202 19.71285046 -0.26576102 16.55050751 0.1875 10.5 C0.71903185 7.77301049 1.4229332 5.17598381 2.1875 2.5 C-3.29288999 3.65931327 -5.62720187 4.89901381 -8.8125 9.5 C-11.90423752 11.04586876 -14.40679552 10.79359521 -17.8125 10.5 C-20.25 8.5 -20.25 8.5 -21.8125 6.5 C-21.4825 5.84 -21.1525 5.18 -20.8125 4.5 C-20.3175 5.2425 -20.3175 5.2425 -19.8125 6 C-17.24949424 7.92225432 -15.02696168 8.15123625 -11.859375 8.0703125 C-8.55753882 7.15033524 -7.28913295 4.7346427 -5.328125 2.0625 C-3.8125 0.5 -3.8125 0.5 0 0 Z " fill="#876D5B" transform="translate(95.8125,110.5)"/>
<path d="M0 0 C0 4.29 0 8.58 0 13 C-2.5654594 10.4345406 -2.54046087 8.52313332 -3 5 C-4.5159375 5.7425 -4.5159375 5.7425 -6.0625 6.5 C-9.81989965 8.10051507 -12.89489053 8.47366648 -17 8 C-17.99 7.01 -18.98 6.02 -20 5 C-14.06 4.505 -14.06 4.505 -8 4 C-7.67 3.01 -7.34 2.02 -7 1 C-5 0 -5 0 0 0 Z " fill="#9E8467" transform="translate(332,40)"/>
<path d="M0 0 C1.92875977 0.07734375 1.92875977 0.07734375 3.89648438 0.15625 C5.23438705 0.2211061 6.57227757 0.28621333 7.91015625 0.3515625 C9.27534646 0.40989704 10.64058125 0.46719805 12.00585938 0.5234375 C15.32870441 0.66433552 18.65072801 0.81569584 21.97265625 0.9765625 C21.97265625 1.3065625 21.97265625 1.6365625 21.97265625 1.9765625 C10.75265625 2.3065625 -0.46734375 2.6365625 -12.02734375 2.9765625 C-12.35734375 3.6365625 -12.68734375 4.2965625 -13.02734375 4.9765625 C-15.99734375 4.9765625 -18.96734375 4.9765625 -22.02734375 4.9765625 C-22.46345785 9.19557207 -22.46345785 9.19557207 -20.52734375 12.7265625 C-20.03234375 13.1390625 -19.53734375 13.5515625 -19.02734375 13.9765625 C-19.02734375 14.6365625 -19.02734375 15.2965625 -19.02734375 15.9765625 C-22.90234375 14.1015625 -22.90234375 14.1015625 -24.02734375 12.9765625 C-24.09960877 11.12368748 -24.11115595 9.26822372 -24.08984375 7.4140625 C-24.08082031 6.40214844 -24.07179688 5.39023438 -24.0625 4.34765625 C-24.05089844 3.56519531 -24.03929688 2.78273438 -24.02734375 1.9765625 C-18.48660301 0.84322917 -18.48660301 0.84322917 -16.08984375 1.5390625 C-13.81966318 2.19454083 -13.81966318 2.19454083 -10.83764648 1.00244141 C-6.95559339 -0.04275543 -3.99787631 -0.17768339 0 0 Z " fill="#D9BC89" transform="translate(144.02734375,108.0234375)"/>
<path d="M0 0 C0.33 0 0.66 0 1 0 C1.28875 1.093125 1.5775 2.18625 1.875 3.3125 C2.81893204 7.04013845 2.81893204 7.04013845 5 10 C5.4516129 16.32258065 5.4516129 16.32258065 3 20 C0.1015625 20.43359375 0.1015625 20.43359375 -3.375 20.4375 C-4.51710938 20.45683594 -5.65921875 20.47617188 -6.8359375 20.49609375 C-10.56517315 19.91138643 -11.77304289 18.99697461 -14 16 C-13.75 13.75 -13.75 13.75 -13 12 C-10 14 -10 14 -9 17 C-7.54207116 17.05399736 -6.08357288 17.09279177 -4.625 17.125 C-3.81289062 17.14820312 -3.00078125 17.17140625 -2.1640625 17.1953125 C0.21342243 17.21370051 0.21342243 17.21370051 2 15 C2.33333333 12.5 2.33333333 12.5 2 10 C1.34 9.34 0.68 8.68 0 8 C-0.26991906 5.31160615 -0.08737357 2.70858064 0 0 Z " fill="#B69E86" transform="translate(100,77)"/>
<path d="M0 0 C0.76166977 0.00222061 1.52333954 0.00444122 2.30809021 0.00672913 C3.16890701 0.00680466 4.02972382 0.00688019 4.91662598 0.00695801 C5.8520372 0.01211929 6.78744843 0.01728058 7.75120544 0.02259827 C8.70422043 0.02401321 9.65723541 0.02542816 10.63912964 0.02688599 C13.69605085 0.032503 16.75289996 0.04505836 19.80979919 0.05775452 C21.87685543 0.06276733 23.94391281 0.06733061 26.01097107 0.07142639 C31.08977507 0.08247795 36.16852489 0.09975397 41.24729919 0.12025452 C41.24729919 0.45025452 41.24729919 0.78025452 41.24729919 1.12025452 C40.28839783 1.14531067 39.32949646 1.17036682 38.34153748 1.19618225 C34.78931442 1.29024072 31.23728763 1.3904651 27.68528748 1.49256897 C26.14692267 1.53592377 24.60850956 1.57759847 23.0700531 1.61756897 C20.86075779 1.6752585 18.65170571 1.73895631 16.44261169 1.80384827 C15.75297333 1.82056076 15.06333496 1.83727325 14.35279846 1.85449219 C10.67615656 1.92832447 10.67615656 1.92832447 7.24729919 3.12025452 C4.5749371 3.25440924 1.92479431 3.16343992 -0.75270081 3.12025452 C-0.09270081 5.43025452 0.56729919 7.74025452 1.24729919 10.12025452 C0.25729919 9.79025452 -0.73270081 9.46025452 -1.75270081 9.12025452 C-3.11893755 6.38778103 -2.8811268 4.13826549 -2.75270081 1.12025452 C-1.75270081 0.12025452 -1.75270081 0.12025452 0 0 Z " fill="#A28665" transform="translate(123.75270080566406,111.87974548339844)"/>
<path d="M0 0 C0 0.66 0 1.32 0 2 C0.99 2.33 1.98 2.66 3 3 C2.01 2.835 1.02 2.67 0 2.5 C-10.91172831 1.18440155 -22.62749113 0.9110182 -33 5 C-33.33 5.66 -33.66 6.32 -34 7 C-35.32 6.67 -36.64 6.34 -38 6 C-34.60571744 3.01303134 -31.34455598 2.10454813 -27 1 C-25.989375 0.62875 -24.97875 0.2575 -23.9375 -0.125 C-16.40735206 -2.29847452 -7.59359297 -1.44474752 0 0 Z " fill="#755D55" transform="translate(300,36)"/>
<path d="M0 0 C0.33 1.32 0.66 2.64 1 4 C0.34 4 -0.32 4 -1 4 C-1.185625 4.928125 -1.37125 5.85625 -1.5625 6.8125 C-3 10 -3 10 -6.0625 11.8125 C-10.25755554 13.31705578 -14.57639794 13.70910553 -19 14 C-19 13.34 -19 12.68 -19 12 C-17.56570999 11.32645501 -16.12742943 10.66140299 -14.6875 10 C-13.48673828 9.443125 -13.48673828 9.443125 -12.26171875 8.875 C-10 8 -10 8 -7 8 C-7 7.34 -7 6.68 -7 6 C-5.46875 4.4921875 -5.46875 4.4921875 -3.5 2.875 C-2.8503125 2.33617187 -2.200625 1.79734375 -1.53125 1.2421875 C-1.0259375 0.83226562 -0.520625 0.42234375 0 0 Z " fill="#9A836B" transform="translate(395,45)"/>
<path d="M0 0 C0.495 0.99 0.495 0.99 1 2 C-0.98 2.33 -2.96 2.66 -5 3 C-5 3.66 -5 4.32 -5 5 C-5.59167969 5.18175781 -6.18335938 5.36351563 -6.79296875 5.55078125 C-11.23516087 6.96387662 -15.0620319 8.45190299 -19 11 C-19.99 11.33 -20.98 11.66 -22 12 C-22.33 12.66 -22.66 13.32 -23 14 C-24.63989697 14.73628027 -26.28456995 15.46401151 -27.953125 16.1328125 C-30.83123914 17.3521662 -33.55446747 18.83896468 -36.30078125 20.328125 C-36.86152344 20.54984375 -37.42226563 20.7715625 -38 21 C-38.66 20.67 -39.32 20.34 -40 20 C-35.60041541 17.31225378 -31.08483277 14.89941888 -26.5234375 12.5 C-24.02801302 11.16532689 -24.02801302 11.16532689 -22.48046875 9.43359375 C-20.49403219 7.51005228 -18.55020314 6.93841343 -15.9375 6.0625 C-10.55293854 4.20303144 -5.27406748 2.15081277 0 0 Z " fill="#80623A" transform="translate(381,85)"/>
<path d="M0 0 C-0.75023437 0.31710938 -1.50046875 0.63421875 -2.2734375 0.9609375 C-10.61172228 4.76252326 -15.92338865 9.19742181 -22 16 C-22.63671875 14.15625 -22.63671875 14.15625 -23 12 C-20.8125 9.5 -20.8125 9.5 -18 7 C-17.34 6.29875 -16.68 5.5975 -16 4.875 C-11.36331617 0.52810891 -6.31339362 -2.10446454 0 0 Z " fill="#C6AD89" transform="translate(269,45)"/>
<path d="M0 0 C3 2 3 2 3.5 4.25 C2.78683845 8.17238852 0.65755133 10.09523459 -2 13 C-3.0111222 14.32491874 -4.01663902 15.65434813 -5 17 C-8.17538332 16.65978036 -9.02276865 15.97533396 -11.25 13.5625 C-13 11 -13 11 -13 9 C-10.525 9.495 -10.525 9.495 -8 10 C-8 10.99 -8 11.98 -8 13 C-4.14622659 11.71540886 -2.54137159 10.15954305 0 7 C0.41831404 3.28999282 0.41831404 3.28999282 0 0 Z " fill="#BDA177" transform="translate(125,122)"/>
<path d="M0 0 C4.6875 3.515625 4.6875 3.515625 6 5 C6 6.32 6 7.64 6 9 C2.7 9.33 -0.6 9.66 -4 10 C-4 4.55671096 -3.47311819 3.79872302 0 0 Z " fill="#4F3131" transform="translate(117,82)"/>
<path d="M0 0 C0.125 2.875 0.125 2.875 0 6 C-2 8 -2 8 -4.5625 8.1875 C-7 8 -7 8 -8 7 C-8.04092937 4.66702567 -8.04241723 2.33294775 -8 0 C-4.71023192 -1.09658936 -3.28696233 -0.79953138 0 0 Z " fill="#73594E" transform="translate(115,115)"/>
<path d="M0 0 C0.66 0 1.32 0 2 0 C2 0.99 2 1.98 2 3 C4.31 3 6.62 3 9 3 C9.33 3.99 9.66 4.98 10 6 C8.60461746 6.05472088 7.20859103 6.09311538 5.8125 6.125 C5.03519531 6.14820313 4.25789063 6.17140625 3.45703125 6.1953125 C1 6 1 6 -1.21875 5.03125 C-5.20751729 3.55226887 -9.08922541 3.53499777 -13.3125 3.375 C-14.14845703 3.33632813 -14.98441406 3.29765625 -15.84570312 3.2578125 C-17.89679259 3.16404841 -19.94836515 3.08095755 -22 3 C-22 2.67 -22 2.34 -22 2 C-14.74 2 -7.48 2 0 2 C0 1.34 0 0.68 0 0 Z " fill="#846847" transform="translate(468,21)"/>
<path d="M0 0 C5.61 0 11.22 0 17 0 C17 0.66 17 1.32 17 2 C15.68 2.33 14.36 2.66 13 3 C16.62885324 3.15149298 16.62885324 3.15149298 20 2 C19.34 3.32 18.68 4.64 18 6 C16.33388095 6.042721 14.66617115 6.04063832 13 6 C12.67 5.67 12.34 5.34 12 5 C9.81980521 4.60333773 7.6303537 4.25684763 5.4375 3.9375 C3.64119141 3.67259766 3.64119141 3.67259766 1.80859375 3.40234375 C0.88175781 3.26957031 -0.04507812 3.13679687 -1 3 C-0.67 2.01 -0.34 1.02 0 0 Z " fill="#7F6448" transform="translate(419,126)"/>
<path d="M0 0 C1.21236328 0.01353516 1.21236328 0.01353516 2.44921875 0.02734375 C3.37154297 0.04474609 3.37154297 0.04474609 4.3125 0.0625 C5.57487731 2.58725462 5.41106404 4.37450466 5.375 7.1875 C5.36597656 8.09757812 5.35695313 9.00765625 5.34765625 9.9453125 C5.33605469 10.64398438 5.32445313 11.34265625 5.3125 12.0625 C4.3225 12.0625 3.3325 12.0625 2.3125 12.0625 C2.9725 9.4225 3.6325 6.7825 4.3125 4.0625 C0.6825 4.0625 -2.9475 4.0625 -6.6875 4.0625 C-7.0175 6.0425 -7.3475 8.0225 -7.6875 10.0625 C-8.0175 10.0625 -8.3475 10.0625 -8.6875 10.0625 C-8.3575 7.0925 -8.0275 4.1225 -7.6875 1.0625 C-4.80538698 0.10179566 -2.98899956 -0.04331883 0 0 Z " fill="#D5B98A" transform="translate(111.6875,108.9375)"/>
<path d="M0 0 C4.875 0.875 4.875 0.875 6 2 C6.07244053 4.01964199 6.08377188 6.04167124 6.0625 8.0625 C6.05347656 9.16722656 6.04445312 10.27195312 6.03515625 11.41015625 C6.02355469 12.26480469 6.01195312 13.11945313 6 14 C8.69822825 12.4467436 10.85523241 11.15381557 13 8.875 C15.32965058 6.69095258 16.8728345 6.34746283 20 6 C19 8 19 8 16.75 9.3125 C13.84358817 10.93450435 13.84358817 10.93450435 11.4375 13.6875 C9 16 9 16 5 16 C4.80664062 14.92878906 4.61328125 13.85757813 4.4140625 12.75390625 C4.15149745 11.35668511 3.88845175 9.95955422 3.625 8.5625 C3.49867188 7.85544922 3.37234375 7.14839844 3.2421875 6.41992188 C2.89377757 4.59948 2.452957 2.79728352 2 1 C1.34 0.67 0.68 0.34 0 0 Z " fill="#977B58" transform="translate(230,115)"/>
<path d="M0 0 C0.66 0.33 1.32 0.66 2 1 C2 2.98 2 4.96 2 7 C1.34 5.68 0.68 4.36 0 3 C-2.31 3 -4.62 3 -7 3 C-6.67 5.31 -6.34 7.62 -6 10 C-4.68 10.33 -3.36 10.66 -2 11 C-2 11.66 -2 12.32 -2 13 C-4.875 12.6875 -4.875 12.6875 -8 12 C-10.30441554 8.54337669 -10.25860135 7.05142119 -10 3 C-8.02737928 -0.94524143 -3.89976385 -0.1659474 0 0 Z " fill="#A68C6E" transform="translate(114,112)"/>
<path d="M0 0 C0.495 1.485 0.495 1.485 1 3 C-0.6875 5.0625 -0.6875 5.0625 -3 7 C-4.67613635 6.71812089 -6.34133163 6.37109047 -8 6 C-10.72055815 5.85224479 -13.42227854 5.74509296 -16.14453125 5.68359375 C-16.91431808 5.66281265 -17.68410492 5.64203156 -18.47721863 5.62062073 C-20.92222667 5.55553951 -23.36733683 5.49643409 -25.8125 5.4375 C-27.47592177 5.39427532 -29.13933344 5.35065979 -30.80273438 5.30664062 C-34.86838648 5.19990093 -38.93414071 5.09851829 -43 5 C-43 4.67 -43 4.34 -43 4 C-41.76846191 3.98541748 -40.53692383 3.97083496 -39.26806641 3.95581055 C-34.70933642 3.89794348 -30.15110643 3.82071068 -25.59277344 3.73754883 C-23.61792094 3.70424472 -21.642972 3.67623003 -19.66796875 3.65356445 C-16.83291423 3.62011878 -13.998748 3.56780954 -11.1640625 3.51171875 C-9.83430893 3.50213387 -9.83430893 3.50213387 -8.47769165 3.49235535 C-7.65699188 3.47256119 -6.83629211 3.45276703 -5.99072266 3.43237305 C-5.26680328 3.42126999 -4.54288391 3.41016693 -3.79702759 3.39872742 C-1.58351797 3.12509493 -1.58351797 3.12509493 0 0 Z " fill="#BBA48B" transform="translate(234,88)"/>
<path d="M0 0 C-2.26727333 1.17407021 -4.53834624 2.33939739 -6.8125 3.5 C-7.45509766 3.83386719 -8.09769531 4.16773437 -8.75976562 4.51171875 C-11.69547699 6.00239084 -13.66126517 7 -17 7 C-17 7.66 -17 8.32 -17 9 C-21.27884606 11.1103435 -25.13864142 11.24128739 -29.8125 11.125 C-30.85180664 11.11146484 -30.85180664 11.11146484 -31.91210938 11.09765625 C-33.60822395 11.07426157 -35.30415871 11.03839641 -37 11 C-37 10.67 -37 10.34 -37 10 C-35.62328125 9.96132812 -35.62328125 9.96132812 -34.21875 9.921875 C-26.76659622 9.57744772 -21.33362315 8.91558047 -15 5 C-13.61109082 4.27818416 -12.21511739 3.56980305 -10.8125 2.875 C-9.82830078 2.38580078 -9.82830078 2.38580078 -8.82421875 1.88671875 C-2.43648208 -1.21824104 -2.43648208 -1.21824104 0 0 Z " fill="#64482F" transform="translate(362,98)"/>
<path d="M0 0 C1.24523437 0.01804687 2.49046875 0.03609375 3.7734375 0.0546875 C5.18496094 0.08949219 5.18496094 0.08949219 6.625 0.125 C6.625 0.455 6.625 0.785 6.625 1.125 C5.83996094 1.16238281 5.05492187 1.19976562 4.24609375 1.23828125 C-5.96292508 1.7963937 -5.96292508 1.7963937 -14.375 7.125 C-15.138125 7.41375 -15.90125 7.7025 -16.6875 8 C-19.73145898 9.27421539 -21.88045882 10.98682185 -24.375 13.125 C-22.92308944 9.61879046 -21.11277185 7.80688507 -18.125 5.5 C-17.37734375 4.90960938 -16.6296875 4.31921875 -15.859375 3.7109375 C-10.66242075 0.39338494 -6.08870115 -0.11488115 0 0 Z " fill="#75562C" transform="translate(463.375,114.875)"/>
<path d="M0 0 C0.53625 0.2475 1.0725 0.495 1.625 0.75 C-1.16169544 3.74311733 -3.87003802 5.6788861 -7.375 7.75 C-9.47436089 9.28710431 -11.54257036 10.85968123 -13.60546875 12.4453125 C-15.375 13.75 -15.375 13.75 -17.375 14.75 C-14.79951217 8.99302721 -6.95103435 -0.73168783 0 0 Z " fill="#8C756B" transform="translate(260.375,43.25)"/>
<path d="M0 0 C1.4540625 0.0309375 1.4540625 0.0309375 2.9375 0.0625 C2.9375 0.3925 2.9375 0.7225 2.9375 1.0625 C1.57625 1.371875 1.57625 1.371875 0.1875 1.6875 C-3.86781485 3.40321013 -4.74648366 5.40169998 -7.0625 9.0625 C-10.76972917 11.98925987 -13.38990781 12.3884948 -18.0625 12.0625 C-18.0625 14.3725 -18.0625 16.6825 -18.0625 19.0625 C-18.3925 19.0625 -18.7225 19.0625 -19.0625 19.0625 C-19.0625 16.4225 -19.0625 13.7825 -19.0625 11.0625 C-17.969375 10.794375 -16.87625 10.52625 -15.75 10.25 C-12.23194687 9.11706764 -11.26763582 8.76880305 -9.0625 6.0625 C-3.0625 0.0625 -3.0625 0.0625 0 0 Z " fill="#8D766C" transform="translate(81.0625,87.9375)"/>
<path d="M0 0 C0.6875 1.5625 0.6875 1.5625 1 4 C0.32171668 5.56005163 -0.36536829 7.11690125 -1.09765625 8.65234375 C-3.10598956 13.877488 -3.92834403 19.52011379 -5 25 C-5.66 25 -6.32 25 -7 25 C-7.25 17.375 -7.25 17.375 -5 14 C-4.63445127 12.5540517 -4.32554816 11.09305927 -4.0625 9.625 C-3.30354272 5.90307348 -2.22584114 3.13641252 0 0 Z " fill="#7D645A" transform="translate(239,62)"/>
<path d="M0 0 C0 0.66 0 1.32 0 2 C-1.93694678 2.81381795 -3.87457711 3.62600916 -5.8125 4.4375 C-7.43091797 5.11619141 -7.43091797 5.11619141 -9.08203125 5.80859375 C-13.58552731 7.64737059 -16.82942081 8.11059979 -21.6875 8.0625 C-23.45673828 8.04896484 -23.45673828 8.04896484 -25.26171875 8.03515625 C-26.16535156 8.02355469 -27.06898438 8.01195312 -28 8 C-28 7.67 -28 7.34 -28 7 C-27.01773437 6.83564453 -27.01773437 6.83564453 -26.015625 6.66796875 C-18.11049281 5.29461951 -7.29324167 0 0 0 Z " fill="#755D55" transform="translate(388,51)"/>
<path d="M0 0 C1.5 1 1.5 1 3 3 C3.33190332 5.75479755 3.18037589 8.20417366 3 11 C2.67 11.33 2.34 11.66 2 12 C1.63239269 14.32817964 1.29758419 16.6618385 1 19 C2.32 19.33 3.64 19.66 5 20 C3.34385343 20.38218767 1.67542976 20.71395102 0 21 C-1 20 -1 20 -1.125 16.4375 C-1.07965623 12.22808658 -0.55598187 8.16986401 0 4 C0 2.68 0 1.36 0 0 Z " fill="#AC9273" transform="translate(111,74)"/>
<path d="M0 0 C0.33 0 0.66 0 1 0 C1.72588556 7.01689373 1.72588556 7.01689373 -0.30078125 9.76171875 C-1.3640609 10.76916987 -2.45999993 11.74359333 -3.58984375 12.67578125 C-5.28224658 14.05492375 -5.28224658 14.05492375 -6 17 C-7.65 17 -9.3 17 -11 17 C-11.66 15.68 -12.32 14.36 -13 13 C-10.525 13.495 -10.525 13.495 -8 14 C-4.39363961 9.53174216 -1.41963409 5.67853635 0 0 Z " fill="#775B49" transform="translate(128,124)"/>
<path d="M0 0 C-4.57049785 2.66898746 -9.64547755 3.17729126 -14.78515625 4.12109375 C-18.03112875 5.00851029 -18.87410411 5.57955227 -21 8 C-23.30988315 8.74386068 -25.64315944 9.42190703 -28 10 C-28 9.34 -28 8.68 -28 8 C-27.195625 7.71125 -26.39125 7.4225 -25.5625 7.125 C-22.8673532 6.26737432 -22.8673532 6.26737432 -22 4 C-14.78829748 1.31885144 -7.70529515 -0.61642361 0 0 Z " fill="#8D714C" transform="translate(278,111)"/>
<path d="M0 0 C1.89693861 0.28438952 3.79252027 0.57783792 5.6875 0.875 C6.74324219 1.03742188 7.79898437 1.19984375 8.88671875 1.3671875 C11.80695065 1.96076036 14.26710177 2.83945417 17 4 C18.65919896 4.36871088 20.3247643 4.71281674 22 5 C21.67 5.99 21.34 6.98 21 8 C17.33488089 8.34094131 15.61047477 8.49497954 12.6875 6.125 C9.44930808 3.56456918 6.89445372 3.14181534 2.890625 2.4921875 C1.95476562 2.24855469 1.95476562 2.24855469 1 2 C0.67 1.34 0.34 0.68 0 0 Z " fill="#5F411E" transform="translate(456,89)"/>
<path d="M0 0 C2.64 0 5.28 0 8 0 C8.03738281 0.89203125 8.07476562 1.7840625 8.11328125 2.703125 C8.17902344 3.87359375 8.24476563 5.0440625 8.3125 6.25 C8.39951172 7.99023438 8.39951172 7.99023438 8.48828125 9.765625 C9.01711803 13.10819638 9.73772333 14.5497057 12 17 C7.125 15.125 7.125 15.125 6 14 C5.92741054 11.81360547 5.91626217 9.62499611 5.9375 7.4375 C5.94652344 6.23996094 5.95554687 5.04242188 5.96484375 3.80859375 C5.97644531 2.88175781 5.98804688 1.95492187 6 1 C3.69 1.33 1.38 1.66 -1 2 C-0.67 1.34 -0.34 0.68 0 0 Z " fill="#735845" transform="translate(326,39)"/>
<path d="M0 0 C6.10532936 0.02810278 11.45860875 0.12667709 17.20703125 2.265625 C17.53703125 1.605625 17.86703125 0.945625 18.20703125 0.265625 C19.58265979 1.55527676 20.91469518 2.89251793 22.20703125 4.265625 C22.20703125 4.925625 22.20703125 5.585625 22.20703125 6.265625 C20.88703125 5.935625 19.56703125 5.605625 18.20703125 5.265625 C18.20703125 4.605625 18.20703125 3.945625 18.20703125 3.265625 C15.22851562 3.31445312 15.22851562 3.31445312 12.25 3.36328125 C10.20703125 3.265625 10.20703125 3.265625 7.20703125 2.265625 C5.14558018 2.196634 3.08201724 2.18094773 1.01953125 2.203125 C-0.06714844 2.21214844 -1.15382813 2.22117187 -2.2734375 2.23046875 C-3.10488281 2.24207031 -3.93632812 2.25367187 -4.79296875 2.265625 C-2.79296875 0.265625 -2.79296875 0.265625 0 0 Z " fill="#684924" transform="translate(460.79296875,115.734375)"/>
<path d="M0 0 C0.66 0.33 1.32 0.66 2 1 C1.67 1.66 1.34 2.32 1 3 C0.34 2.67 -0.32 2.34 -1 2 C-4.11963121 1.86384911 -7.00969698 2.07990676 -10 3 C-12.16247221 5.90251302 -12.16247221 5.90251302 -13 9 C-14.98 9 -16.96 9 -19 9 C-18.360625 8.7525 -17.72125 8.505 -17.0625 8.25 C-16.381875 7.8375 -15.70125 7.425 -15 7 C-14.814375 6.0409375 -14.814375 6.0409375 -14.625 5.0625 C-14 3 -14 3 -11.4375 1.25 C-7.23543377 -0.27802408 -4.44611817 -0.29640788 0 0 Z " fill="#E4C68F" transform="translate(99,108)"/>
<path d="M0 0 C0.93779297 0.00322266 1.87558594 0.00644531 2.84179688 0.00976562 C4.30649414 0.02233398 4.30649414 0.02233398 5.80078125 0.03515625 C6.78884766 0.03966797 7.77691406 0.04417969 8.79492188 0.04882812 C11.23443599 0.06061322 13.67382814 0.07706614 16.11328125 0.09765625 C16.11328125 0.42765625 16.11328125 0.75765625 16.11328125 1.09765625 C11.16328125 1.09765625 6.21328125 1.09765625 1.11328125 1.09765625 C1.11328125 1.75765625 1.11328125 2.41765625 1.11328125 3.09765625 C-2.84671875 3.09765625 -6.80671875 3.09765625 -10.88671875 3.09765625 C-7.04905308 0.53921247 -4.50374143 -0.0272954 0 0 Z " fill="#90734A" transform="translate(322.88671875,104.90234375)"/>
<path d="M0 0 C1.875 0.25 1.875 0.25 4 1 C4.6837045 2.32467746 5.34964186 3.65863633 6 5 C6.928125 5.4640625 6.928125 5.4640625 7.875 5.9375 C10.73797489 7.36898744 12.12430451 9.45441327 14 12 C13.67 12.66 13.34 13.32 13 14 C12.49210937 13.54109375 11.98421875 13.0821875 11.4609375 12.609375 C7.47145085 9.05320338 3.53266749 5.83291718 -1 3 C-0.67 2.01 -0.34 1.02 0 0 Z " fill="#EACD99" transform="translate(66,102)"/>
<path d="M0 0 C0.99 0.66 1.98 1.32 3 2 C3.39507893 6.34586828 3.45331002 8.32003497 1 12 C1 9.03 1 6.06 1 3 C-3.24480464 2.66707415 -5.35542625 2.56114128 -8.9375 5 C-9.618125 5.66 -10.29875 6.32 -11 7 C-10.1875 4.0625 -10.1875 4.0625 -9 1 C-5.74531799 -0.084894 -3.4103976 -0.21314985 0 0 Z " fill="#BDA27A" transform="translate(98,109)"/>
<path d="M0 0 C1.32 0 2.64 0 4 0 C4.33 1.32 4.66 2.64 5 4 C4.236875 4.061875 3.47375 4.12375 2.6875 4.1875 C-0.85436667 5.2582969 -1.17745741 6.90960169 -3 10 C-4.32 10 -5.64 10 -7 10 C-7 9.34 -7 8.68 -7 8 C-5.68 8 -4.36 8 -3 8 C-2.814375 6.576875 -2.814375 6.576875 -2.625 5.125 C-2 2 -2 2 0 0 Z " fill="#9F8365" transform="translate(107,127)"/>
<path d="M0 0 C0.33 0 0.66 0 1 0 C1.36398932 4.48920165 1.36398932 4.48920165 -0.171875 6.64453125 C-2.66285743 8.49147762 -4.36230942 8.40003547 -7.4375 8.375 C-8.38496094 8.38273437 -9.33242187 8.39046875 -10.30859375 8.3984375 C-13.35191571 7.94790217 -14.73261099 7.02617742 -17 5 C-16.67 3.68 -16.34 2.36 -16 1 C-13 3 -13 3 -12 6 C-10.54207116 6.05399736 -9.08357288 6.09279177 -7.625 6.125 C-6.40683594 6.15980469 -6.40683594 6.15980469 -5.1640625 6.1953125 C-2.78657757 6.21370051 -2.78657757 6.21370051 -1 4 C-0.3574765 1.93125966 -0.3574765 1.93125966 0 0 Z " fill="#8E786E" transform="translate(103,88)"/>
<path d="M0 0 C1.7492214 -0.08142927 3.49954542 -0.13938541 5.25 -0.1875 C6.22453125 -0.22230469 7.1990625 -0.25710937 8.203125 -0.29296875 C11.37468742 0.03924798 12.67040307 0.88672279 15 3 C10.73640798 4.16279782 7.3069785 3.95710633 3 3 C1.2890625 1.453125 1.2890625 1.453125 0 0 Z " fill="#B19878" transform="translate(294,40)"/>
<path d="M0 0 C0 3.89807054 -1.41213822 6.4578468 -3 10 C-3.350625 10.94875 -3.70125 11.8975 -4.0625 12.875 C-5 15 -5 15 -7 16 C-5.71746597 5.06974729 -5.71746597 5.06974729 -2.375 1.8125 C-1.199375 0.9153125 -1.199375 0.9153125 0 0 Z " fill="#BBA386" transform="translate(248,53)"/>
<path d="M0 0 C-5.80221829 3.69232073 -10.97778489 6.51382062 -18 6 C-15.56593077 3.05349514 -13.683642 2.66116651 -10 2 C-9.34 1.34 -8.68 0.68 -8 0 C-2.51428571 -1.25714286 -2.51428571 -1.25714286 0 0 Z " fill="#988067" transform="translate(435,25)"/>
<path d="M0 0 C4.62 0 9.24 0 14 0 C14 0.66 14 1.32 14 2 C10.30516081 3.18234854 6.85646386 3.2804701 3 3 C2.01 2.01 1.02 1.02 0 0 Z " fill="#B09673" transform="translate(312,45)"/>
<path d="M0 0 C0.66 0.33 1.32 0.66 2 1 C1.071875 1.825 0.14375 2.65 -0.8125 3.5 C-4.33461082 6.97238691 -5.42885076 10.36510973 -7 15 C-7.99 15.495 -7.99 15.495 -9 16 C-9 8.63725265 -5.01714403 5.04000118 0 0 Z " fill="#674821" transform="translate(445,122)"/>
<path d="M0 0 C2.31 0 4.62 0 7 0 C7 0.66 7 1.32 7 2 C10.96 2 14.92 2 19 2 C19 2.33 19 2.66 19 3 C12.73 3 6.46 3 0 3 C0 2.01 0 1.02 0 0 Z " fill="#988068" transform="translate(394,31)"/>
<path d="M0 0 C1.43088528 2.86177057 0.59991697 4.93375773 0 8 C0.66 8 1.32 8 2 8 C1.67 8.66 1.34 9.32 1 10 C-0.5 8.625 -0.5 8.625 -2 7 C-2 6.34 -2 5.68 -2 5 C-3.98 5.66 -5.96 6.32 -8 7 C-7.67 5.35 -7.34 3.7 -7 2 C-4.03 2.495 -4.03 2.495 -1 3 C-0.67 2.01 -0.34 1.02 0 0 Z " fill="#C9AF89" transform="translate(113,122)"/>
<path d="M0 0 C0.52078125 0.15339844 1.0415625 0.30679688 1.578125 0.46484375 C4.63278515 1.13982511 7.63015971 1.34411118 10.75 1.5625 C11.92046875 1.64628906 13.0909375 1.73007813 14.296875 1.81640625 C15.18890625 1.87699219 16.0809375 1.93757813 17 2 C16.67 2.66 16.34 3.32 16 4 C9.98039393 5.59703834 6.45969007 4.54157986 1 2 C0.67 1.34 0.34 0.68 0 0 Z " fill="#E7CEA5" transform="translate(86,95)"/>
<path d="M0 0 C1.134375 0.020625 2.26875 0.04125 3.4375 0.0625 C3.540625 0.660625 3.64375 1.25875 3.75 1.875 C4.52626455 4.34493264 5.50838921 5.38501235 7.4375 7.0625 C5 6.25 5 6.25 2.4375 5.0625 C2.1075 4.0725 1.7775 3.0825 1.4375 2.0625 C-2.64214281 3.36405006 -2.64214281 3.36405006 -6.5625 5.0625 C-4.14811644 0.07277397 -4.14811644 0.07277397 0 0 Z " fill="#D2B998" transform="translate(82.5625,88.9375)"/>
<path d="M0 0 C0.33 0 0.66 0 1 0 C0.88660796 2.64680904 0.75987127 5.29177518 0.625 7.9375 C0.5940625 8.69224609 0.563125 9.44699219 0.53125 10.22460938 C0.4273685 12.15507395 0.22104386 14.07942081 0 16 C-0.66 16.33 -1.32 16.66 -2 17 C-3.86558515 13.2688297 -3.58899088 8.82518685 -2.328125 4.91796875 C-1.60916165 3.25282251 -0.81112518 1.62225036 0 0 Z " fill="#E0C38E" transform="translate(111,78)"/>
<path d="M0 0 C4.875 0.875 4.875 0.875 6 2 C6.07179964 3.51928038 6.08392007 5.04167482 6.0625 6.5625 C6.05347656 7.38878906 6.04445312 8.21507813 6.03515625 9.06640625 C6.01775391 10.02353516 6.01775391 10.02353516 6 11 C5.34 11 4.68 11 4 11 C3.87882813 10.28972656 3.75765625 9.57945313 3.6328125 8.84765625 C3.46523437 7.92855469 3.29765625 7.00945312 3.125 6.0625 C2.96257812 5.14597656 2.80015625 4.22945313 2.6328125 3.28515625 C2.42398438 2.53105469 2.21515625 1.77695313 2 1 C1.34 0.67 0.68 0.34 0 0 Z " fill="#9E8265" transform="translate(230,115)"/>
<path d="M0 0 C0.66 0.33 1.32 0.66 2 1 C2.92017937 10.73004484 2.92017937 10.73004484 0.6640625 13.84375 C-1 15.1875 -1 15.1875 -4 17 C-3.36416185 13.31213873 -3.36416185 13.31213873 -1.46875 11.6875 C0.55685014 9.36021474 0.30568873 7.84601076 0.1875 4.8125 C0.16042969 3.91144531 0.13335938 3.01039062 0.10546875 2.08203125 C0.07066406 1.39496094 0.03585937 0.70789063 0 0 Z " fill="#5E3E18" transform="translate(515,95)"/>
<path d="M0 0 C0.33 0 0.66 0 1 0 C1.33 1.65 1.66 3.3 2 5 C2.763125 4.505 3.52625 4.01 4.3125 3.5 C7 2 7 2 10 2 C8.90536178 3.17561146 7.79892814 4.3402489 6.6875 5.5 C6.07261719 6.1496875 5.45773438 6.799375 4.82421875 7.46875 C3 9 3 9 0 9 C0 6.03 0 3.06 0 0 Z " fill="#B4976F" transform="translate(236,120)"/>
<path d="M0 0 C2.475 0.99 2.475 0.99 5 2 C5 4.97 5 7.94 5 11 C1.7 11 -1.6 11 -5 11 C-5 10.67 -5 10.34 -5 10 C-2.03 10 0.94 10 4 10 C4 8.02 4 6.04 4 4 C3.01 3.67 2.02 3.34 1 3 C0.67 2.01 0.34 1.02 0 0 Z " fill="#B0977C" transform="translate(121,82)"/>
<path d="M0 0 C2.64 0 5.28 0 8 0 C7.01 0.495 7.01 0.495 6 1 C6 1.66 6 2.32 6 3 C6.99 3.33 7.98 3.66 9 4 C5.7 3.67 2.4 3.34 -1 3 C-0.67 2.01 -0.34 1.02 0 0 Z " fill="#765C47" transform="translate(419,126)"/>
<path d="M0 0 C0.66 0.33 1.32 0.66 2 1 C1.525625 1.350625 1.05125 1.70125 0.5625 2.0625 C-1.67873825 4.84163543 -1.67117658 7.5144717 -2 11 C-2.66 10.67 -3.32 10.34 -4 10 C-4 7.36 -4 4.72 -4 2 C-2.125 0.9375 -2.125 0.9375 0 0 Z " fill="#BEA276" transform="translate(134,82)"/>
<path d="M0 0 C1.65 0.33 3.3 0.66 5 1 C5.33 2.32 5.66 3.64 6 5 C6.66 5 7.32 5 8 5 C8 5.66 8 6.32 8 7 C6.68 7 5.36 7 4 7 C4 5.35 4 3.7 4 2 C2.02 2.66 0.04 3.32 -2 4 C-1.34 2.68 -0.68 1.36 0 0 Z " fill="#C7AE8E" transform="translate(126,68)"/>
<path d="M0 0 C1.32 0.33 2.64 0.66 4 1 C3.67 1.66 3.34 2.32 3 3 C2.01 3 1.02 3 0 3 C-0.33 4.65 -0.66 6.3 -1 8 C-3.31 8 -5.62 8 -8 8 C-7.13375 7.690625 -7.13375 7.690625 -6.25 7.375 C-3.18589456 5.50249112 -1.84460032 3.03041481 0 0 Z " fill="#6E5345" transform="translate(108,130)"/>
<path d="M0 0 C3 1 3 1 4.1875 3.0625 C4.455625 3.701875 4.72375 4.34125 5 5 C6.65 4.67 8.3 4.34 10 4 C9.34 5.32 8.68 6.64 8 8 C4.82461668 7.65978036 3.97723135 6.97533396 1.75 4.5625 C0 2 0 2 0 0 Z " fill="#9D8165" transform="translate(112,131)"/>
<path d="M0 0 C2.44897847 3.67346771 2.31537716 5.66356399 2 10 C1.34 10.66 0.68 11.32 0 12 C-1 11 -1 11 -1.1328125 8.75 C-1.13023437 7.8425 -1.12765625 6.935 -1.125 6 C-1.12757813 5.0925 -1.13015625 4.185 -1.1328125 3.25 C-1 1 -1 1 0 0 Z " fill="#694C2B" transform="translate(510,106)"/>
<path d="M0 0 C0.33 0 0.66 0 1 0 C1.36625971 4.51720311 1.36625971 4.51720311 -0.375 6.8125 C-2 8 -2 8 -4 8 C-4.33 8.99 -4.66 9.98 -5 11 C-5.99 10.67 -6.98 10.34 -8 10 C-7.236875 9.278125 -6.47375 8.55625 -5.6875 7.8125 C-3.28715765 5.30051382 -1.70928296 2.99124519 0 0 Z " fill="#DEC08B" transform="translate(125,124)"/>
<path d="M0 0 C4.3890815 0.51035831 7.33708062 1.52214277 11 4 C9.125 4.625 9.125 4.625 7 5 C6.34 4.34 5.68 3.68 5 3 C2.42938689 2.35232207 2.42938689 2.35232207 0 2 C0 1.34 0 0.68 0 0 Z " fill="#856B58" transform="translate(63,108)"/>
<path d="M0 0 C2.31 0.33 4.62 0.66 7 1 C7 1.99 7 2.98 7 4 C4.03 3.67 1.06 3.34 -2 3 C-1.34 2.67 -0.68 2.34 0 2 C0 1.34 0 0.68 0 0 Z " fill="#563619" transform="translate(498,101)"/>
<path d="M0 0 C3 1 3 1 4 3 C4.06996014 4.70702735 4.08440154 6.41668003 4.0625 8.125 C4.05347656 9.03507812 4.04445313 9.94515625 4.03515625 10.8828125 C4.02355469 11.58148438 4.01195313 12.28015625 4 13 C3.01 13.33 2.02 13.66 1 14 C1.33 13.01 1.66 12.02 2 11 C2.23164058 6.75325612 2.33214424 3.64397537 0 0 Z " fill="#DFC499" transform="translate(102,83)"/>
<path d="M0 0 C0.99 0 1.98 0 3 0 C1.44499019 3.81684226 -1.03595495 6.19195732 -4 9 C-3.3543999 5.51375944 -2.07639763 2.87501211 0 0 Z " fill="#E8CFA5" transform="translate(126,70)"/>
<path d="M0 0 C2.02350324 3.03525486 2.32124018 4.19426202 2.625 7.6875 C2.69976562 8.49574219 2.77453125 9.30398437 2.8515625 10.13671875 C2.90054688 10.75160156 2.94953125 11.36648437 3 12 C0.89366282 10.29171079 0.06198392 9.47851584 -0.29296875 6.73828125 C-0.25816406 5.93777344 -0.22335938 5.13726562 -0.1875 4.3125 C-0.16042969 3.50425781 -0.13335937 2.69601563 -0.10546875 1.86328125 C-0.07066406 1.24839844 -0.03585938 0.63351563 0 0 Z " fill="#6E5448" transform="translate(232,118)"/>
<path d="M0 0 C1.32 0.33 2.64 0.66 4 1 C3.34 1 2.68 1 2 1 C2.66 1.66 3.32 2.32 4 3 C3.67028521 6.29714793 3.3773161 7.6226839 1 10 C0.67 6.7 0.34 3.4 0 0 Z " fill="#896E4F" transform="translate(393,35)"/>
<path d="M0 0 C0.99 0.99 1.98 1.98 3 3 C1.7934375 3.6496875 1.7934375 3.6496875 0.5625 4.3125 C-2.27846354 5.80474002 -2.27846354 5.80474002 -3 9 C-2.34 9.33 -1.68 9.66 -1 10 C-1.99 10 -2.98 10 -4 10 C-4.41176754 6.39703406 -4.1535853 5.21597933 -2 2.1875 C-1.34 1.465625 -0.68 0.74375 0 0 Z " fill="#5C413B" transform="translate(117,82)"/>
<path d="M0 0 C3 3 3 3 3.375 6.0625 C3.25125 7.031875 3.1275 8.00125 3 9 C2.01 9.66 1.02 10.32 0 11 C0 7.37 0 3.74 0 0 Z " fill="#B79C79" transform="translate(111,74)"/>
<path d="M0 0 C0 3 0 3 -2 6 C-2.39013716 7.9896995 -2.73202649 9.99019869 -3 12 C-3.33 12 -3.66 12 -4 12 C-4.22893297 8.96663814 -4.36475845 6.02534949 -4 3 C-2 0.9375 -2 0.9375 0 0 Z " fill="#8C756A" transform="translate(123,70)"/>
<path d="M0 0 C1.32 0 2.64 0 4 0 C4 1.32 4 2.64 4 4 C2.35 4 0.7 4 -1 4 C-0.67 2.68 -0.34 1.36 0 0 Z " fill="#513433" transform="translate(110,116)"/>
<path d="M0 0 C2.99324263 1.0975223 3.84610901 1.67682892 5.25 4.625 C5.4975 5.40875 5.745 6.1925 6 7 C3.5625 6.3125 3.5625 6.3125 1 5 C0.1875 2.375 0.1875 2.375 0 0 Z " fill="#977D6A" transform="translate(86,89)"/>
<path d="M0 0 C-1.15173355 2.46800047 -2.04783565 4.04783565 -4 6 C-4.99 5.67 -5.98 5.34 -7 5 C-2.25 0 -2.25 0 0 0 Z " fill="#E5CEA7" transform="translate(81,91)"/>
<path d="M0 0 C3.14737182 0.69941596 6.02588876 1.76078698 9 3 C5.93109813 4.53445094 3.29905734 3.54984289 0 3 C0 2.01 0 1.02 0 0 Z " fill="#71584A" transform="translate(470,21)"/>
</svg>
